<svg id="svg" version="1.1" xmlns="http://www.w3.org/2000/svg" xmlns:xlink="http://www.w3.org/1999/xlink" width="400" height="400" viewBox="0, 0, 400,400"><g id="svgg"><path id="path0" d="M77.478 93.368 L 58.474 126.342 76.890 158.264 C 87.019 175.821,95.624 190.644,96.013 191.205 L 96.720 192.226 134.549 192.131 L 172.378 192.037 187.133 166.481 C 195.248 152.426,203.783 137.643,206.099 133.631 L 210.310 126.337 191.320 93.446 L 172.330 60.556 134.406 60.474 L 96.481 60.393 77.478 93.368 M209.815 165.632 C 200.037 182.574,191.509 197.363,190.863 198.497 L 189.689 200.559 199.103 216.854 L 208.516 233.148 197.894 233.247 C 192.051 233.301,187.131 233.205,186.961 233.035 C 186.790 232.864,183.438 227.153,179.512 220.344 L 172.373 207.963 134.546 207.869 L 96.720 207.774 96.016 208.795 C 95.629 209.356,92.267 215.106,88.546 221.574 L 81.780 233.333 70.519 233.333 C 64.326 233.333,59.259 233.408,59.259 233.500 C 59.259 233.591,61.926 237.584,65.185 242.373 C 68.444 247.162,71.111 251.245,71.111 251.447 C 71.111 251.968,58.853 273.122,58.464 273.272 C 58.287 273.341,58.449 273.841,58.823 274.384 C 60.038 276.149,64.444 284.038,64.444 284.449 C 64.444 284.669,63.267 286.550,61.828 288.628 L 59.212 292.407 64.284 292.593 C 69.076 292.768,69.388 292.825,69.925 293.636 C 70.238 294.108,76.285 304.524,83.364 316.784 L 96.235 339.074 134.343 339.168 L 172.450 339.263 185.708 316.296 C 193.000 303.664,199.157 293.205,199.391 293.053 C 199.624 292.902,224.920 292.694,255.603 292.593 L 311.392 292.407 302.734 279.630 C 297.972 272.602,294.075 266.727,294.075 266.574 C 294.074 266.421,296.209 266.296,298.819 266.296 L 303.563 266.296 322.430 233.618 C 332.806 215.645,341.296 200.762,341.296 200.546 C 341.296 200.329,332.809 185.451,322.436 167.483 L 303.577 134.815 265.585 134.822 L 227.593 134.830 209.815 165.632 M215.926 243.157 L 215.926 248.536 209.722 248.435 L 203.519 248.333 203.414 243.538 C 203.276 237.181,202.614 237.778,209.803 237.778 L 215.926 237.778 215.926 243.157 M101.861 246.313 C 104.146 250.397,106.099 253.654,106.202 253.551 C 106.305 253.448,108.175 250.148,110.356 246.219 L 114.323 239.074 120.760 238.972 C 128.992 238.842,128.602 238.542,125.799 242.859 C 116.100 257.800,112.963 262.674,112.963 262.809 C 112.963 262.893,116.213 267.856,120.185 273.837 C 124.157 279.818,127.407 284.905,127.407 285.142 C 127.407 285.457,125.595 285.545,120.656 285.471 L 113.904 285.370 110.193 278.810 C 108.152 275.202,106.315 272.245,106.111 272.238 C 105.907 272.232,104.170 274.992,102.251 278.372 C 100.332 281.753,98.528 284.752,98.243 285.037 C 97.669 285.611,85.024 285.823,84.679 285.265 C 84.580 285.105,87.814 279.984,91.867 273.885 C 98.587 263.772,99.192 262.730,98.744 262.046 C 98.474 261.634,96.369 258.380,94.066 254.815 C 91.764 251.250,88.641 246.432,87.128 244.107 C 85.614 241.783,84.290 239.658,84.185 239.385 C 84.030 238.981,85.273 238.889,90.851 238.889 L 97.708 238.889 101.861 246.313 M151.376 251.333 C 158.930 253.300,161.484 257.116,161.761 266.852 C 161.947 273.389,162.082 273.903,163.701 274.259 L 164.815 274.503 164.815 279.815 L 164.815 285.126 163.796 285.318 C 157.135 286.570,152.848 285.322,151.800 281.825 C 151.266 280.044,151.365 280.042,149.375 281.876 C 141.035 289.564,127.725 285.107,127.725 274.627 C 127.725 265.640,137.823 260.288,148.611 263.557 C 149.100 263.705,149.259 263.540,149.259 262.885 C 149.259 258.920,142.172 258.026,135.297 261.124 C 132.644 262.320,132.956 262.519,130.733 258.207 C 128.969 254.783,128.896 255.086,131.852 253.547 C 137.421 250.649,145.313 249.753,151.376 251.333 M243.069 250.910 C 252.224 252.542,257.815 259.045,257.815 268.061 C 257.815 269.744,257.713 271.286,257.589 271.487 C 257.449 271.714,252.904 271.852,245.534 271.852 C 232.542 271.852,233.058 271.751,234.249 274.055 C 235.869 277.186,241.967 277.479,244.722 274.557 L 245.935 273.271 250.836 274.706 C 256.655 276.410,256.718 276.510,253.898 279.556 C 242.111 292.287,220.161 284.964,220.263 268.333 C 220.337 256.315,230.374 248.647,243.069 250.910 M285.000 256.296 L 285.000 262.037 282.508 262.283 C 279.468 262.584,277.657 263.131,275.839 264.299 L 274.456 265.188 274.358 275.279 L 274.259 285.370 268.148 285.370 L 262.037 285.370 261.941 268.241 L 261.844 251.111 267.589 251.111 L 273.333 251.111 273.333 254.127 L 273.333 257.144 274.637 255.437 C 276.922 252.443,281.078 250.264,284.074 250.487 L 285.000 250.556 285.000 256.296 M179.860 262.784 C 181.456 269.186,182.868 274.304,183.000 274.157 C 183.132 274.009,184.537 268.764,186.124 262.500 L 189.008 251.111 194.914 251.111 C 200.388 251.111,200.801 251.158,200.567 251.759 C 200.427 252.116,197.912 259.538,194.978 268.253 C 192.044 276.967,189.468 284.426,189.253 284.827 C 188.770 285.729,176.348 285.972,175.649 285.093 C 175.144 284.458,164.034 251.476,164.222 251.171 C 164.305 251.036,167.205 250.975,170.666 251.035 L 176.960 251.144 179.860 262.784 M215.837 268.241 L 215.741 285.370 209.630 285.370 L 203.519 285.370 203.422 268.704 C 203.369 259.537,203.405 251.829,203.503 251.574 C 203.635 251.230,205.247 251.111,209.807 251.111 L 215.933 251.111 215.837 268.241 M236.111 260.299 C 234.836 260.897,234.360 261.450,233.422 263.426 C 233.349 263.579,235.815 263.704,238.901 263.704 L 244.513 263.704 243.830 262.539 C 242.282 259.894,239.003 258.943,236.111 260.299 M141.974 270.325 C 138.022 272.175,139.111 276.667,143.512 276.667 C 147.826 276.667,151.657 271.634,148.311 270.362 C 146.269 269.586,143.588 269.570,141.974 270.325 " stroke="none" fill="#fbfbfb" fill-rule="evenodd"></path><path id="path1" d="M0.000 200.000 L 0.000 400.000 200.000 400.000 L 400.000 400.000 400.000 200.000 L 400.000 0.000 200.000 0.000 L 0.000 0.000 0.000 200.000 M191.798 93.338 L 210.819 126.297 191.731 159.352 L 172.643 192.407 134.390 192.407 L 96.137 192.407 77.127 159.479 C 66.671 141.368,58.165 126.346,58.225 126.098 C 58.284 125.849,66.814 110.958,77.179 93.008 L 96.024 60.370 134.401 60.375 L 172.778 60.379 191.798 93.338 M322.678 166.984 C 333.010 184.881,341.566 199.790,341.690 200.114 C 341.835 200.491,335.087 212.544,322.903 233.668 L 303.889 266.632 299.212 266.742 L 294.535 266.852 303.364 279.815 C 308.220 286.944,312.200 292.903,312.208 293.056 C 312.216 293.208,286.846 293.333,255.831 293.333 L 199.440 293.333 185.975 316.668 L 172.510 340.003 134.342 339.909 L 96.175 339.815 82.810 316.591 L 69.444 293.368 64.167 293.351 C 57.805 293.330,57.947 293.601,61.508 288.293 L 64.128 284.389 61.231 279.324 C 59.637 276.538,58.282 274.063,58.219 273.824 C 58.156 273.584,60.955 268.455,64.439 262.427 C 68.288 255.768,70.665 251.287,70.495 251.011 C 70.342 250.760,67.742 246.920,64.717 242.476 C 61.692 238.033,59.126 234.158,59.014 233.865 C 58.839 233.410,60.436 233.332,70.053 233.324 L 81.296 233.315 88.704 220.454 L 96.111 207.593 134.394 207.593 L 172.676 207.593 180.111 220.463 L 187.546 233.333 197.877 233.333 L 208.209 233.333 207.472 232.130 C 204.362 227.050,189.259 200.559,189.341 200.328 C 189.398 200.167,197.944 185.285,208.333 167.256 L 227.222 134.477 265.557 134.461 L 303.892 134.444 322.678 166.984 M204.074 242.963 L 204.074 247.778 209.815 247.778 L 215.556 247.778 215.556 242.963 L 215.556 238.148 209.815 238.148 L 204.074 238.148 204.074 242.963 M85.325 240.669 C 85.821 241.454,87.798 244.500,89.720 247.437 C 95.898 256.882,98.845 261.448,99.245 262.196 C 99.579 262.820,98.626 264.445,92.668 273.407 C 88.835 279.172,85.574 284.097,85.420 284.352 C 85.202 284.715,86.530 284.815,91.595 284.815 L 98.049 284.815 101.883 278.148 C 103.991 274.481,105.888 271.487,106.099 271.494 C 106.309 271.501,108.148 274.494,110.185 278.145 L 113.889 284.783 120.278 284.799 C 123.792 284.808,126.667 284.740,126.667 284.648 C 126.667 284.556,123.500 279.701,119.630 273.860 C 115.759 268.019,112.593 263.034,112.593 262.783 C 112.593 262.531,115.757 257.462,119.625 251.518 C 123.492 245.574,126.832 240.384,127.045 239.985 C 127.424 239.277,127.275 239.259,121.032 239.265 L 114.630 239.271 110.556 246.660 C 108.315 250.724,106.306 254.055,106.092 254.062 C 105.878 254.069,103.859 250.782,101.607 246.759 L 97.512 239.444 90.968 239.343 L 84.424 239.242 85.325 240.669 M139.403 251.514 C 137.137 251.893,132.673 253.463,130.921 254.496 L 129.662 255.239 131.219 258.380 C 132.330 260.618,132.936 261.469,133.333 261.343 C 133.639 261.246,134.972 260.712,136.296 260.156 C 141.050 258.161,147.533 258.522,149.071 260.869 C 149.834 262.033,149.705 264.330,148.889 264.108 C 137.682 261.049,128.042 265.861,128.040 274.515 C 128.037 284.750,141.502 288.996,149.455 281.267 C 151.299 279.474,151.647 279.440,151.963 281.021 C 152.653 284.468,156.886 285.967,163.056 284.947 L 164.444 284.718 164.444 279.766 C 164.444 275.302,164.381 274.814,163.796 274.803 C 161.906 274.769,161.681 274.069,161.441 267.485 C 161.176 260.217,160.566 258.069,158.027 255.456 C 154.506 251.833,146.999 250.244,139.403 251.514 M233.620 251.687 C 218.437 255.367,215.871 276.703,229.815 283.326 C 237.971 287.200,249.348 285.035,254.151 278.694 C 255.818 276.493,256.100 276.772,250.541 275.139 L 245.954 273.791 245.404 274.631 C 242.599 278.911,232.725 276.927,233.389 272.217 L 233.519 271.296 245.463 271.199 L 257.407 271.101 257.403 268.236 C 257.385 256.247,246.384 248.593,233.620 251.687 M280.828 251.474 C 278.999 251.908,276.858 253.482,275.154 255.647 C 273.054 258.315,272.963 258.274,272.963 254.660 L 272.963 251.481 267.593 251.481 L 262.222 251.481 262.222 268.148 L 262.222 284.815 268.148 284.815 L 274.074 284.815 274.074 275.069 L 274.074 265.324 275.138 264.304 C 276.326 263.166,279.478 262.063,282.690 261.662 L 284.815 261.396 284.815 256.254 L 284.815 251.111 283.426 251.149 C 282.662 251.170,281.493 251.316,280.828 251.474 M169.839 267.130 C 172.739 275.736,175.291 283.236,175.510 283.796 L 175.908 284.815 182.364 284.815 L 188.821 284.815 189.620 282.500 C 191.127 278.138,200.000 251.727,200.000 251.604 C 200.000 251.537,197.583 251.481,194.630 251.481 C 191.676 251.481,189.259 251.547,189.259 251.626 C 189.259 252.112,183.296 275.346,183.129 275.513 C 182.675 275.967,182.134 274.165,179.389 263.056 L 176.530 251.481 170.548 251.481 L 164.567 251.481 169.839 267.130 M204.074 268.148 L 204.074 284.815 209.815 284.815 L 215.556 284.815 215.556 268.148 L 215.556 251.481 209.815 251.481 L 204.074 251.481 204.074 268.148 M242.260 260.104 C 243.947 261.237,245.232 263.573,244.444 264.077 C 243.755 264.519,234.076 264.551,233.386 264.115 C 232.796 263.741,233.103 262.406,234.025 261.336 C 235.950 259.102,239.890 258.513,242.260 260.104 M148.611 269.933 C 149.842 270.439,150.083 273.262,149.025 274.772 C 147.063 277.574,140.801 277.808,139.417 275.131 C 137.341 271.117,143.300 267.748,148.611 269.933 " stroke="none" fill="#94b4ec" fill-rule="evenodd"></path><path id="path2" d="M241.296 134.717 C 277.313 134.972,303.987 134.974,303.832 134.722 C 303.737 134.569,286.545 134.484,265.626 134.532 C 244.708 134.581,233.759 134.664,241.296 134.717 M203.495 238.260 C 203.393 238.526,203.357 240.901,203.414 243.538 L 203.519 248.333 209.723 248.347 L 215.927 248.361 209.796 248.246 L 203.665 248.130 203.777 242.953 C 203.888 237.834,203.857 237.319,203.495 238.260 M84.074 239.167 C 84.074 239.319,87.225 239.444,91.076 239.444 C 94.927 239.444,98.000 239.319,97.906 239.167 C 97.811 239.014,94.661 238.889,90.904 238.889 C 87.148 238.889,84.074 239.014,84.074 239.167 M114.316 239.167 C 114.221 239.319,117.226 239.396,120.992 239.336 C 126.241 239.253,127.777 239.331,127.567 239.671 C 127.392 239.954,127.450 240.017,127.727 239.846 C 128.883 239.132,127.205 238.889,121.111 238.889 C 117.468 238.889,114.411 239.014,114.316 239.167 M143.801 250.636 C 144.364 250.721,145.198 250.719,145.653 250.631 C 146.109 250.543,145.648 250.474,144.630 250.476 C 143.611 250.479,143.238 250.551,143.801 250.636 M238.426 250.632 C 238.884 250.720,239.634 250.720,240.093 250.632 C 240.551 250.543,240.176 250.471,239.259 250.471 C 238.343 250.471,237.968 250.543,238.426 250.632 M282.963 250.514 C 282.963 250.592,283.454 250.729,284.055 250.817 C 284.655 250.905,285.062 250.841,284.959 250.674 C 284.775 250.377,282.963 250.231,282.963 250.514 M273.038 253.960 C 272.956 257.275,273.290 257.948,274.241 256.386 L 274.859 255.370 274.111 256.226 L 273.364 257.081 273.239 254.004 L 273.114 250.926 273.038 253.960 M203.519 268.426 L 203.519 285.370 209.416 285.473 C 212.660 285.529,215.444 285.446,215.602 285.288 C 215.761 285.129,213.150 285.049,209.801 285.110 L 203.711 285.220 203.615 268.351 L 203.519 251.481 203.519 268.426 M275.717 254.167 L 274.630 255.370 275.833 254.283 C 276.495 253.684,277.037 253.143,277.037 253.079 C 277.037 252.793,276.731 253.045,275.717 254.167 M252.778 255.926 C 253.781 256.944,254.685 257.778,254.787 257.778 C 254.889 257.778,254.151 256.944,253.148 255.926 C 252.145 254.907,251.241 254.074,251.139 254.074 C 251.037 254.074,251.775 254.907,252.778 255.926 M224.983 256.019 L 223.519 257.593 225.093 256.129 C 226.556 254.767,226.837 254.444,226.557 254.444 C 226.496 254.444,225.788 255.153,224.983 256.019 M142.500 259.150 C 142.958 259.239,143.708 259.239,144.167 259.150 C 144.625 259.062,144.250 258.990,143.333 258.990 C 142.417 258.990,142.042 259.062,142.500 259.150 M148.079 260.660 C 148.626 261.226,149.144 261.642,149.230 261.584 C 149.443 261.439,147.718 259.630,147.366 259.630 C 147.211 259.630,147.532 260.093,148.079 260.660 M242.172 260.599 C 242.642 260.928,243.345 261.720,243.734 262.358 C 244.123 262.996,244.442 263.316,244.443 263.068 C 244.445 262.472,242.260 260.000,241.731 260.000 C 241.503 260.000,241.701 260.269,242.172 260.599 M283.333 261.852 L 281.667 262.111 283.219 262.167 C 284.073 262.197,284.874 262.056,285.000 261.852 C 285.126 261.648,285.177 261.507,285.114 261.537 C 285.052 261.568,284.250 261.709,283.333 261.852 M141.028 262.864 C 141.899 262.942,143.233 262.941,143.991 262.862 C 144.750 262.782,144.037 262.718,142.407 262.720 C 140.778 262.721,140.157 262.786,141.028 262.864 M149.288 263.081 C 149.266 263.595,149.063 263.700,148.426 263.526 C 147.674 263.320,147.659 263.339,148.276 263.724 C 149.064 264.215,149.835 263.704,149.515 262.903 C 149.386 262.578,149.308 262.639,149.288 263.081 M236.019 263.979 C 237.597 264.048,240.181 264.048,241.759 263.979 C 243.338 263.910,242.046 263.853,238.889 263.853 C 235.731 263.853,234.440 263.910,236.019 263.979 M274.160 275.295 L 274.074 285.220 267.998 285.110 C 264.656 285.049,261.999 285.125,262.094 285.278 C 262.413 285.792,274.077 285.609,274.277 285.087 C 274.376 284.829,274.410 280.287,274.352 274.994 L 274.246 265.370 274.160 275.295 M220.086 268.519 C 220.086 269.231,220.162 269.523,220.255 269.167 C 220.348 268.810,220.348 268.227,220.255 267.870 C 220.162 267.514,220.086 267.806,220.086 268.519 M141.645 270.206 C 140.937 270.772,140.938 270.776,141.667 270.441 C 142.074 270.253,142.657 270.007,142.963 269.894 C 143.443 269.716,143.440 269.684,142.941 269.659 C 142.624 269.643,142.040 269.889,141.645 270.206 M257.450 270.458 L 257.407 271.471 245.468 271.569 C 234.356 271.660,233.524 271.712,233.469 272.322 C 233.427 272.780,233.461 272.808,233.583 272.415 C 233.735 271.927,235.329 271.852,245.594 271.852 C 258.180 271.852,258.119 271.861,257.667 270.114 C 257.553 269.674,257.479 269.791,257.450 270.458 M149.345 272.222 C 149.345 272.935,149.421 273.227,149.515 272.870 C 149.608 272.514,149.608 271.931,149.515 271.574 C 149.421 271.218,149.345 271.509,149.345 272.222 M113.656 284.907 C 114.112 285.488,114.865 285.547,120.879 285.472 L 127.593 285.389 120.953 285.278 C 116.427 285.203,114.128 285.023,113.731 284.713 C 113.217 284.313,113.208 284.336,113.656 284.907 M84.767 285.287 C 84.926 285.445,87.959 285.527,91.509 285.471 L 97.963 285.369 91.221 285.184 C 87.513 285.083,84.609 285.129,84.767 285.287 M182.407 285.185 L 175.741 285.396 182.293 285.476 C 186.350 285.525,188.932 285.415,189.074 285.185 C 189.200 284.981,189.251 284.851,189.189 284.894 C 189.126 284.938,186.074 285.069,182.407 285.185 M138.796 285.817 C 139.255 285.905,140.005 285.905,140.463 285.817 C 140.921 285.729,140.546 285.656,139.630 285.656 C 138.713 285.656,138.338 285.729,138.796 285.817 M158.056 285.817 C 158.514 285.905,159.264 285.905,159.722 285.817 C 160.181 285.729,159.806 285.656,158.889 285.656 C 157.972 285.656,157.597 285.729,158.056 285.817 M238.062 285.824 C 238.728 285.906,239.728 285.905,240.284 285.820 C 240.841 285.736,240.296 285.668,239.074 285.670 C 237.852 285.672,237.397 285.742,238.062 285.824 M61.187 292.867 C 62.554 292.938,64.887 292.938,66.373 292.868 C 67.858 292.797,66.741 292.739,63.889 292.739 C 61.037 292.738,59.821 292.796,61.187 292.867 M227.870 292.870 C 243.301 292.924,268.551 292.924,283.981 292.870 C 299.412 292.817,286.787 292.773,255.926 292.773 C 225.065 292.773,212.440 292.817,227.870 292.870 M172.687 338.707 C 172.411 339.201,167.917 339.255,134.185 339.170 C 113.182 339.117,96.074 339.199,96.168 339.352 C 96.640 340.114,172.552 339.657,172.963 338.889 C 173.420 338.036,173.159 337.864,172.687 338.707 " stroke="none" fill="#c3d4f4" fill-rule="evenodd"></path><path id="path3" d="M134.444 192.222 L 96.111 192.413 134.330 192.503 C 159.507 192.562,172.627 192.466,172.778 192.222 C 172.904 192.019,172.955 191.892,172.892 191.942 C 172.829 191.991,155.528 192.118,134.444 192.222 M109.815 207.680 C 145.813 207.934,172.876 207.937,172.721 207.685 C 172.626 207.532,155.350 207.447,134.330 207.495 C 113.310 207.544,102.278 207.627,109.815 207.680 M203.785 243.056 L 203.704 248.148 209.722 248.066 L 215.741 247.983 209.918 247.871 L 204.095 247.759 203.980 242.861 L 203.865 237.963 203.785 243.056 M143.796 251.006 C 144.356 251.091,145.273 251.091,145.833 251.006 C 146.394 250.921,145.935 250.852,144.815 250.852 C 143.694 250.852,143.236 250.921,143.796 251.006 M238.246 251.007 C 238.809 251.092,239.642 251.089,240.098 251.001 C 240.553 250.914,240.093 250.844,239.074 250.847 C 238.056 250.849,237.683 250.921,238.246 251.007 M283.056 250.996 C 283.412 251.089,283.995 251.089,284.352 250.996 C 284.708 250.903,284.417 250.827,283.704 250.827 C 282.991 250.827,282.699 250.903,283.056 250.996 M167.315 251.387 C 168.995 251.455,171.745 251.455,173.426 251.387 C 175.106 251.318,173.731 251.262,170.370 251.262 C 167.009 251.262,165.634 251.318,167.315 251.387 M191.296 251.359 C 195.795 251.629,200.288 251.644,200.129 251.389 C 200.034 251.236,197.591 251.142,194.700 251.180 C 191.810 251.217,190.278 251.298,191.296 251.359 M203.951 251.358 C 203.815 251.494,203.704 259.160,203.704 268.395 L 203.704 285.185 209.722 285.103 L 215.741 285.020 209.907 284.908 L 204.074 284.796 204.074 268.148 L 204.074 251.500 209.907 251.388 L 215.741 251.276 209.969 251.194 C 206.795 251.148,204.086 251.222,203.951 251.358 M264.924 251.387 C 266.512 251.456,269.012 251.456,270.480 251.386 C 271.947 251.316,270.648 251.259,267.593 251.259 C 264.537 251.260,263.336 251.317,264.924 251.387 M252.407 255.926 C 253.203 256.741,253.937 257.407,254.039 257.407 C 254.141 257.407,253.573 256.741,252.778 255.926 C 251.982 255.111,251.248 254.444,251.146 254.444 C 251.044 254.444,251.612 255.111,252.407 255.926 M225.165 256.204 L 223.889 257.593 225.278 256.316 C 226.042 255.614,226.667 254.989,226.667 254.927 C 226.667 254.645,226.353 254.911,225.165 256.204 M283.056 261.737 C 283.412 261.830,283.995 261.830,284.352 261.737 C 284.708 261.644,284.417 261.567,283.704 261.567 C 282.991 261.567,282.699 261.644,283.056 261.737 M236.204 264.349 C 237.681 264.419,240.097 264.419,241.574 264.349 C 243.051 264.279,241.843 264.221,238.889 264.221 C 235.935 264.221,234.727 264.279,236.204 264.349 M220.481 268.519 C 220.481 269.639,220.551 270.097,220.636 269.537 C 220.721 268.977,220.721 268.060,220.636 267.500 C 220.551 266.940,220.481 267.398,220.481 268.519 M239.537 271.388 C 242.847 271.450,248.264 271.450,251.574 271.388 C 254.884 271.327,252.176 271.277,245.556 271.277 C 238.935 271.277,236.227 271.327,239.537 271.388 M188.889 284.399 C 188.889 284.737,187.259 284.820,182.257 284.738 C 178.609 284.679,175.703 284.755,175.797 284.907 C 176.076 285.357,188.808 285.245,189.089 284.790 C 189.224 284.573,189.233 284.295,189.111 284.173 C 188.989 284.051,188.889 284.152,188.889 284.399 M91.481 284.815 L 84.630 285.025 91.367 285.105 C 95.548 285.155,98.191 285.045,98.333 284.815 C 98.459 284.611,98.511 284.480,98.448 284.524 C 98.385 284.568,95.250 284.699,91.481 284.815 M120.370 284.815 L 113.889 285.027 120.463 285.106 C 124.652 285.156,127.037 285.051,127.037 284.815 C 127.037 284.611,126.995 284.480,126.944 284.524 C 126.894 284.567,123.935 284.698,120.370 284.815 M265.093 285.090 C 266.773 285.159,269.523 285.159,271.204 285.090 C 272.884 285.022,271.509 284.966,268.148 284.966 C 264.787 284.966,263.412 285.022,265.093 285.090 M138.611 285.450 C 139.171 285.535,140.088 285.535,140.648 285.450 C 141.208 285.366,140.750 285.296,139.630 285.296 C 138.509 285.296,138.051 285.366,138.611 285.450 M158.062 285.454 C 158.728 285.536,159.728 285.534,160.284 285.450 C 160.841 285.365,160.296 285.298,159.074 285.300 C 157.852 285.302,157.397 285.371,158.062 285.454 M237.695 285.457 C 238.566 285.535,239.899 285.534,240.658 285.454 C 241.416 285.375,240.704 285.311,239.074 285.312 C 237.444 285.313,236.824 285.379,237.695 285.457 M255.741 292.963 L 199.444 293.152 255.833 293.243 C 293.240 293.303,312.222 293.209,312.222 292.963 C 312.222 292.759,312.181 292.633,312.130 292.683 C 312.079 292.733,286.704 292.859,255.741 292.963 M61.389 293.238 C 62.866 293.308,65.282 293.308,66.759 293.238 C 68.236 293.168,67.028 293.110,64.074 293.110 C 61.120 293.110,59.912 293.168,61.389 293.238 M134.444 339.630 L 96.111 339.820 134.330 339.910 C 159.507 339.969,172.627 339.874,172.778 339.630 C 172.904 339.426,172.955 339.300,172.892 339.349 C 172.829 339.399,155.528 339.525,134.444 339.630 " stroke="none" fill="#a5bdec" fill-rule="evenodd"></path><path id="path4" d="M209.804 238.050 L 215.535 238.167 215.654 243.158 L 215.773 248.149 215.757 243.056 L 215.741 237.963 209.907 237.948 L 204.073 237.934 209.804 238.050 M284.962 256.296 C 284.962 259.250,285.020 260.458,285.090 258.981 C 285.160 257.505,285.160 255.088,285.090 253.611 C 285.020 252.134,284.962 253.343,284.962 256.296 M215.726 268.148 C 215.726 277.417,215.774 281.208,215.833 276.574 C 215.892 271.940,215.892 264.356,215.833 259.722 C 215.774 255.088,215.726 258.880,215.726 268.148 M262.022 268.148 C 262.022 277.417,262.071 281.208,262.129 276.574 C 262.188 271.940,262.188 264.356,262.129 259.722 C 262.071 255.088,262.022 258.880,262.022 268.148 M161.625 267.963 C 161.626 270.611,161.685 271.646,161.756 270.262 C 161.828 268.879,161.827 266.712,161.755 265.448 C 161.683 264.183,161.625 265.315,161.625 267.963 M296.404 266.571 C 297.788 266.643,299.954 266.642,301.219 266.570 C 302.484 266.498,301.352 266.440,298.704 266.440 C 296.056 266.441,295.021 266.500,296.404 266.571 M143.986 269.521 C 144.447 269.610,145.113 269.606,145.467 269.514 C 145.821 269.421,145.444 269.349,144.630 269.353 C 143.815 269.357,143.525 269.433,143.986 269.521 M164.588 279.815 C 164.589 282.463,164.648 283.498,164.719 282.114 C 164.791 280.731,164.790 278.564,164.718 277.299 C 164.646 276.035,164.588 277.167,164.588 279.815 M224.074 279.375 C 224.074 279.439,224.616 279.981,225.278 280.579 L 226.481 281.667 225.394 280.463 C 224.380 279.341,224.074 279.089,224.074 279.375 M252.754 280.463 L 251.667 281.667 252.870 280.579 C 253.532 279.981,254.074 279.439,254.074 279.375 C 254.074 279.089,253.768 279.341,252.754 280.463 " stroke="none" fill="#b7caf4" fill-rule="evenodd"></path></g></svg>