<svg height="512" viewBox="0 0 60 60" width="512" xmlns="http://www.w3.org/2000/svg"><g id="054---Rising-Price" fill="none"><g id="Icons" transform="translate(9 1)"><path id="Shape" d="m19.94 41.28c-1.74 1.72-3.94 4.28-3.94 6.1l-.46 1.83c-.3580171 1.4276962-.3921844 2.9173909-.1 4.36l.24 1.18c.1748288.8934858-.3156853 1.7838433-1.1643483 2.1134689-.8486631.3296257-1.8115573.0037804-2.2856517-.7734689l-1.23-2c-.5907179-.9793817-.6286109-2.1957482-.1-3.21.6144369-1.0738381.9896604-2.2677313 1.1-3.5-.1865456-1.5068447-.7094354-2.9524813-1.53-4.23 1.3047632-1.1084851 2.3989385-2.4431757 3.23-3.94.4275933-.9077127 1.180715-1.6215721 2.11-2l2.83-1.21 1.36 1.33c.5166859.5313292.8007368 1.2464024.7894804 1.9874478s-.316895 1.4471613-.8494804 1.9625522z" fill="#783e22"/><path id="Shape" d="m50 2.63c-1.2357955 2.88933466-3.8891664 4.9248492-7 5.37-.535574.03839919-.9616008.46442605-1 1v.29c.0029024.4434009-.1738632.8690815-.49 1.18l-1 1c-.3330056.3542868-.5157981.8238126-.51 1.31v2.22c-.0056295.8553859-.5546346 1.612495-1.3659163 1.8836755-.8112816.2711805-1.7052116-.0036104-2.2240837-.6836755l-1.7-2.2c-.0990798-.1427637-.2806623-.2027499-.4452879-.1471018s-.2725717.2135031-.2647121.3871018v4.76c.0022698.6005678.4156372 1.1214107 1 1.26l1.15.28c1.1479471.2920665 2.0428525 1.1908126 2.33 2.34.3 1.19.6 2 .18 3.06l-2.4 6.36c-.35 1-.95 1.21-3 2.75-.3919164.2934816-.9140831.3459202-1.3565305.1362294-.4424475-.2096907-.732479-.6470573-.7534695-1.1362294 0-.45 0-.51 1.74-3.8.15-.3.11-.2.11-3.49-.0025227-.1084236-.0720808-.2038924-.1745143-.2395214s-.2162227-.0039333-.2854857.0795214c-5.2 6.41-7.31 6.63-16.73 10.67-.929285.3784279-1.6824067 1.0922873-2.11 2-.9845506 1.7143971-2.2800029 3.2302798-3.82 4.47-3.33 3-3.67 6-4.38 8.09-.39838473 1.266067-.39838473 2.623933 0 3.89.0794236.5566555-.07914887 1.1210309-.43686933 1.5548621s-.88154023.6970379-1.44313067.7251379c-.93845528.0285052-1.77040523-.5996171-2-1.51-.28-1.14-.62-2.49-.62-2.49.06276338-2.4937045.56022553-4.9573266 1.47-7.28.75007514-1.6849053.57214604-3.6383397-.47-5.16-1.08982432-1.2969652-1.78403414-2.8797636-2-4.56 0-5 3-9 6-9 0 0 8-18 15-18 10.27-10.53 8.91-9.17 9.37-9.54.7552041-.51682657 1.7247665-.6039357 2.56-.23l7.07 3.77c2.67.11 7.12-.33 9.27-1.91.1615137-.15735163.4132756-.17442871.5945585-.04032905.1812828.13409965.2386347.37983625.1354415.58032905z" fill="#a0522d"/><path id="Shape" d="m36.13 20.53-1.13-.28c-.5807626-.1376984-.9931446-.6531759-1-1.25v-2.27c-.2336756-.134424-.4377635-.3147016-.6-.53l-1.69-2.2c-.0990798-.1427637-.2806623-.2027499-.4452879-.1471018s-.2725717.2135031-.2647121.3871018v4.76c.0022698.6005678.4156372 1.1214107 1 1.26l1.15.28c1.1479471.2920665 2.0428525 1.1908126 2.33 2.34.3 1.19.6 2 .18 3.06l-2.4 6.36c-.29.78-.76 1.11-2.06 2.06.1203143.416721.4376744.7477423.848958.8855023.4112835.1377601.863999.0646767 1.211042-.1955023 2.06-1.54 2.65-1.8 3-2.75l2.38-6.37c.42-1.1.12-1.87-.18-3.06-.2871475-1.1491874-1.1820529-2.0479335-2.33-2.34z" fill="#783e22"/><path id="Shape" d="m49.26 2.09c-.7945384.53144762-1.6737711.92372066-2.6 1.16-1.3111316 2.57590393-3.7975299 4.34923606-6.66 4.75-.535574.03839919-.9616008.46442605-1 1v.29c.0029024.4434009-.1738632.8690815-.49 1.18l-1 1c-.3330056.3542868-.5157981.8238126-.51 1.31v2.22c.0071798.4827425-.1677721.950471-.49 1.31.5500602.6144588 1.4208812.8282823 2.1929784.5384693.7720973-.289813 1.2871382-1.0238312 1.2970216-1.8484693v-2.22c-.0003391-.4987367.1975093-.9771703.55-1.33l1-1c.2916895-.3075653.4529629-.71612454.45-1.14v-.31c.0383992-.53557395.464426-.96160081 1-1 3.0997018-.43540257 5.750554-2.45005028 7-5.32.162924-.20434536.1293453-.50207598-.075-.66499997-.2043454-.16292399-.502076-.12934536-.665.07499997z" fill="#783e22"/><path id="Shape" d="" fill="#a0522d"/></g><g id="Layer_4" fill="#000" transform="translate(-1)"><path id="Shape" d="m31.12 23c-1.8-.23-2.12-.42-2.12-1.26 0-1.44 3.33-1.72 4.13-.39.2761424.4832491.8917508.6511423 1.375.375.4832491-.2761424.6511423-.8917508.375-1.375-.6655209-.9700702-1.7131494-1.6102876-2.88-1.76v-.59c0-.5522847-.4477153-1-1-1s-1 .4477153-1 1v.61c-1.6368447.1649937-2.9097833 1.4973362-3 3.14 0 2.76 2.43 3.06 3.88 3.24 1.8.23 2.12.42 2.12 1.26 0 1.09-1.25 1.25-2 1.25-.7953562.0545853-1.5897783-.1188693-2.29-.5-.3921222-.3921222-1.0278778-.3921222-1.42 0s-.3921222 1.0278778 0 1.42c.7696372.620779 1.7216037.9720582 2.71 1v.58c0 .5522847.4477153 1 1 1s1-.4477153 1-1v-.58c1.6772521-.1049871 2.9875276-1.4895116 3-3.17 0-2.76-2.43-3.06-3.88-3.25z"/><path id="Shape" d="m58.67 2.28c-2.37 1.72-7.31 1.72-8.41 1.72l-6.93-3.69c-1.3645072-.57730745-2.9423109-.27752477-4 .76l-8.72 9c-6.82.59-13.68 14.66-15.23 18-3.49.49-6.38 4.93-6.38 9.93-.13556284 1.5973386-1.40266139 2.8644372-3 3-1 0-3-.42-3-2s.56-2 2-2c.55228475 0 1-.4477153 1-1s-.44771525-1-1-1c-1.09198769-.1145874-2.17735377.2698633-2.95374523 1.0462548-.77639146.7763914-1.16084216 1.8617575-1.04625477 2.9537452 0 2.63 2.52 4 5 4 1.51276968-.0660385 2.91871877-.7983037 3.84-2 .3772985.7331744.8119869 1.4353632 1.3 2.1.8633899 1.2313595 1.018951 2.824912.41 4.2-1.024197 2.521847-1.55054535 5.2181089-1.55 7.94l.62 2.49c.3680398 1.3504323 1.6003735 2.2828981 3 2.27.8849177.0029535 1.7240948-.3928433 2.2846725-1.0775627.5605777-.6847195.7829189-1.5855178.6053275-2.4524373-.3696699-1.0932452-.3906358-2.2743233-.06-3.38.74-2.12 1-4.66 3.75-7.33.4401029.8106655.7121938 1.701763.8 2.62-.1163305 1.0597064-.4572405 2.0824366-1 3-.6886407 1.3206494-.6393761 2.9046956.13 4.18l1.23 2c.6858701 1.1617969 2.0924001 1.6835068 3.37 1.25 1.377434-.4563775 2.2002122-1.8662423 1.92-3.29-.57-2.83-.65-3.06.31-6.94.0096348-.0797099.0096348-.1602901 0-.24 0-1.1 1.36-3.12 3.64-5.39.7138667-.7111707 1.1151402-1.6773446 1.1151402-2.685s-.4012735-1.9738293-1.1151402-2.685l-.28-.27c3.91-1.67 7.74-3.07 11.62-7.6v1l-1.54 3.29c-.4720023.9600491-.2263358 2.1183743.5947318 2.8041793.8210675.685805 2.0046268.721255 2.8652682.0858207 2.27-1.7 2.88-2 3.33-3.2 3-8 3-7 2.24-10-.3775837-1.5062912-1.5537088-2.6824163-3.06-3.06l-1.15-.29c-.1534254-.034886-.2510441-.1857514-.22-.34v-3l.6.8c.7747747 1.033033 2.1236569 1.454392 3.3486833 1.0460499s2.0513167-1.5547587 2.0513167-2.8460499c0-2.35-.08-2.51.26-2.84.93-.93 1.74-1.53 1.74-2.85l.06-.36c3.4685489-.47757247 6.434708-2.73443266 7.82-5.95.2365335-.60229779.0484014-1.28843497-.4622471-1.68586276s-1.2219746-.41132146-1.7477529-.03413724zm-29.43 36.72c.3383155.3360319.5285722.7931617.5285722 1.27s-.1902567.9339681-.5285722 1.27c-2.73 2.72-4.16 5-4.23 6.67-.8 3.22-1.07 3.87-.31 7.7.0702798.4129998-.1603353.8182869-.5512855.9688392-.3909503.1505522-.8338342.004625-1.0587145-.3488392l-1.22-2c-.4150883-.6853664-.4453645-1.5368842-.08-2.25 1.62-3.12 1.62-4.75-.06-7.95 1.1729901-1.061893 2.1510792-2.3208866 2.89-3.72.55-1.23 1.69-1.52 3.8-2.42zm23.62-31c-1.0384918.09645391-1.8390316.9572494-1.86 2v.3c0 .81-2 1.42-2 3.47v2.23c0 .4304304-.2754301.8125693-.6837722.9486833-.4083422.136114-.8579696-.004339-1.1162278-.3486833l-1.68-2.24c-.3548628-.4958439-.9914485-.7025279-1.5699032-.5097096-.5784548.1928182-.9637129.7401168-.9500968 1.3497096v4.8c-.0033755 1.0500967.7109077 1.9666913 1.73 2.22l1.16.29c.7892428.2008663 1.404055.819521 1.6 1.61.27 1.08.52 1.66.22 2.47l-2.39 6.41c-.22.59-.46.65-2.66 2.3-.073937.0576733-.1700059.0787804-.2613091.0574116-.0913031-.0213689-.1680273-.0829169-.2086909-.1674116-.11-.2-.11-.06 1.6-3.49.28-.57.21-.74.21-3.94-.0088041-.5263626-.3414325-.9927267-.8362385-1.1724545-.4948061-.1797277-1.0491989-.0355552-1.3937615.3624545l-1.1 1.33c-2.1595818 2.5993361-4.8999545 4.6546156-8 6l-7.24 3.1c-1.1570297.4721737-2.0953041 1.3605019-2.63 2.49-.9169446 1.5937276-2.1284416 2.9986569-3.57 4.14-1.9653741 1.7306128-3.3774667 4.0017864-4.06 6.53-.59 2.16-1.25 3.22-.84 5.25.23 1.15.39 1.5 0 1.94-.2389595.3023208-.6303702.4404359-1.0061438.3550328s-.6690392-.3791265-.7538562-.7550328l-.57-2.44c.079694-2.3229333.5530833-4.6154903 1.4-6.78.8654094-2.009124.6229541-4.3238142-.64-6.11-.9606572-1.13538-1.5719467-2.5246743-1.76-4 0-4.51 2.69-8 5-8 .3928994-.0008198.7489117-.231641.91-.59 2.15-4.85 8.88-17.41 14.09-17.41.2672459-.0011094.5229286-.1091444.71-.3l9-9.22c.4593893-.46510917 1.1522176-.61076058 1.76-.37 7.69 4.11 7.16 3.89 7.53 3.89 2.7575659.10267286 5.5111854-.29021749 8.13-1.16-1.2318088 1.75005835-3.1460095 2.89785231-5.27 3.16z"/><path id="Shape" d="m30 6c.5522847 0 1-.44771525 1-1v-4c0-.55228475-.4477153-1-1-1h-4c-.5522847 0-1 .44771525-1 1s.4477153 1 1 1h1.2l-8.65 7.08-8.77 1.92c-.39862207.0830014-.70711528.3994047-.78.8l-1.9 9.52-5.55 2.79c-.41016271.2101126-.6236218.6733224-.51687997 1.1216381s.50604017.7656308.96687997.7683619c.34 0-.05.14 6.45-3.11.28038152-.1323063.48353935-.387177.55-.69l1.87-9.37c9.09-2 8.52-1.84 8.78-2.06l9.35-7.66v1.89c0 .55228475.4477153 1 1 1z"/></g></g></svg>