<?xml version="1.0" encoding="utf-8"?>
<!-- Generator: Moho 12.4 build 22203 -->
<!DOCTYPE svg PUBLIC "-//W3C//DTD SVG 1.1//EN" "http://www.w3.org/Graphics/SVG/1.1/DTD/svg11.dtd">
<svg version="1.1" id="Frame_0" xmlns="http://www.w3.org/2000/svg" xmlns:xlink="http://www.w3.org/1999/xlink" width="1280px" height="720px">
<g id="Layer_12">
<g id="Layer_11">
<path fill="#3d4144" fill-rule="evenodd" stroke="none" d="M 282.218 403.892 C 282.218 403.892 282.218 403.892 282.218 403.892 C 280.111 402.253 276.817 400.549 275.194 398.429 C 269.996 391.637 268.526 379.619 265.828 371.502 C 259.637 352.873 252.092 327.805 246.205 309.077 C 246.205 309.077 246.205 309.077 246.205 309.077 C 248.205 302.922 248.600 293.423 252.873 288.561 C 258.968 281.625 271.849 276.358 281.082 276.252 C 290.740 276.141 304.456 281.305 310.830 288.561 C 316.424 294.929 316.479 307.520 318.524 315.745 C 321.938 329.481 325.594 348.008 328.269 361.906 C 330.184 371.860 332.929 385.119 334.095 395.187 C 334.754 400.879 336.889 408.740 335.305 414.246 C 333.368 420.980 326.344 428.049 321.389 433.003 C 313.249 441.141 299.587 448.687 290.229 455.389 C 285.151 459.026 278.532 464.098 273.288 467.490 C 268.609 470.517 257.256 476.867 257.254 476.868 C 250.992 466.704 236.382 442.989 236.380 442.986 C 241.009 440.082 247.770 436.986 251.809 433.305 C 254.600 430.761 257.408 426.491 259.585 423.404 C 262.767 418.891 264.916 411.099 269.340 407.794 C 272.575 405.378 282.217 403.892 282.218 403.892 C 282.218 403.892 282.218 403.892 282.218 403.892 Z"/>
<path fill="none" stroke="#00000c" stroke-width="1" stroke-linecap="round" stroke-linejoin="round" d="M 257.254 476.868 C 257.254 476.868 257.254 476.868 257.254 476.868 C 257.256 476.867 268.609 470.517 273.288 467.490 C 278.532 464.098 285.151 459.026 290.229 455.389 C 299.587 448.687 313.249 441.141 321.389 433.003 C 326.344 428.049 333.368 420.980 335.305 414.246 C 336.889 408.740 334.754 400.879 334.095 395.187 C 332.929 385.119 330.184 371.860 328.269 361.906 C 325.594 348.008 321.938 329.481 318.524 315.745 C 316.479 307.520 316.424 294.929 310.830 288.561 C 304.456 281.305 290.740 276.141 281.082 276.252 C 271.849 276.358 258.968 281.625 252.873 288.561 C 248.600 293.423 248.205 302.922 246.205 309.077 C 252.092 327.805 259.637 352.873 265.828 371.502 C 268.526 379.619 269.996 391.637 275.194 398.429 C 276.817 400.549 280.111 402.253 282.218 403.892 C 282.218 403.892 282.218 403.892 282.218 403.892 C 282.217 403.892 272.575 405.378 269.340 407.794 C 264.916 411.099 262.767 418.891 259.585 423.404 C 257.408 426.491 254.600 430.761 251.809 433.305 C 247.770 436.986 241.009 440.082 236.380 442.986 C 236.380 442.986 236.380 442.986 236.380 442.986 C 236.382 442.989 250.992 466.704 257.254 476.868 M 246.205 309.077 C 246.205 309.077 246.205 309.077 246.205 309.077 M 282.218 403.892 C 282.218 403.892 282.218 403.892 282.218 403.892 "/>
</g>
<g id="Layer_13">
<path fill="#282d31" fill-rule="evenodd" stroke="none" d="M 207.341 498.579 C 207.341 498.579 207.341 498.579 207.341 498.579 C 206.661 501.017 205.595 504.228 205.074 506.705 C 204.495 509.450 203.993 513.169 203.751 515.964 C 203.373 520.315 206.668 527.650 203.373 530.515 C 201.875 531.818 198.324 531.925 196.759 530.704 C 195.512 529.732 195.851 527.128 195.436 525.602 C 194.413 521.845 192.322 516.994 191.845 513.130 C 191.121 507.271 192.790 493.478 192.790 493.476 C 192.790 493.476 192.790 493.476 192.790 493.476 C 190.522 494.723 186.901 495.657 185.231 497.634 C 182.628 500.716 182.567 506.666 181.262 510.484 C 180.009 514.151 180.019 520.534 176.727 522.578 C 175.186 523.536 172.125 523.675 170.680 522.578 C 168.377 520.831 169.171 515.995 168.790 513.130 C 168.484 510.820 169.990 506.933 168.252 505.382 C 166.884 504.162 163.710 506.331 162.142 505.382 C 160.787 504.561 160.003 502.282 159.614 500.747 C 158.526 496.452 159.161 490.238 160.457 486.001 C 161.858 481.420 165.235 475.644 168.673 472.307 C 171.699 469.370 180.890 465.356 180.891 465.355 C 183.147 463.128 185.854 460.322 188.054 458.404 C 192.265 454.732 197.609 449.093 202.801 447.028 C 205.408 445.990 209.269 445.589 212.070 445.764 C 216.662 446.051 222.385 448.738 226.806 450.012 C 232.418 459.480 245.512 481.568 245.514 481.571 C 244.664 483.839 244.044 487.129 242.680 489.130 C 241.141 491.386 238.432 494.215 235.877 495.177 C 231.521 496.818 220.382 494.421 220.380 494.421 C 220.380 497.313 219.645 501.263 220.380 504.059 C 221.246 507.350 225.195 510.591 226.050 513.886 C 226.691 516.355 227.844 520.576 226.050 522.390 C 224.652 523.802 221.268 523.537 219.436 522.768 C 216.873 521.691 214.980 517.987 213.578 515.586 C 210.836 510.894 207.342 498.581 207.341 498.579 C 207.341 498.579 207.341 498.579 207.341 498.579 M 226.806 450.012 C 226.806 450.012 226.806 450.012 226.806 450.012 M 192.790 493.476 C 192.790 493.476 192.790 493.476 192.790 493.476 M 181.069 465.178 C 181.015 465.231 180.891 465.355 180.891 465.355 C 180.950 465.308 181.008 465.223 181.069 465.178 Z"/>
<path fill="none" stroke="#00000c" stroke-width="1" stroke-linecap="round" stroke-linejoin="round" d="M 245.514 481.571 C 245.514 481.571 245.514 481.571 245.514 481.571 C 245.512 481.568 232.418 459.480 226.806 450.012 C 222.385 448.738 216.662 446.051 212.070 445.764 C 209.269 445.589 205.408 445.990 202.801 447.028 C 197.609 449.093 192.265 454.732 188.054 458.404 C 185.854 460.322 183.147 463.128 181.069 465.178 C 180.890 465.356 171.699 469.370 168.673 472.307 C 165.235 475.644 161.858 481.420 160.457 486.001 C 159.161 490.238 158.526 496.452 159.614 500.747 C 160.003 502.282 160.787 504.561 162.142 505.382 C 163.710 506.331 166.884 504.162 168.252 505.382 C 169.990 506.933 168.484 510.820 168.790 513.130 C 169.171 515.995 168.377 520.831 170.680 522.578 C 172.125 523.675 175.186 523.536 176.727 522.578 C 180.019 520.534 180.009 514.151 181.262 510.484 C 182.567 506.666 182.628 500.716 185.231 497.634 C 186.901 495.657 190.522 494.723 192.790 493.476 C 192.790 493.476 192.790 493.476 192.790 493.476 C 192.790 493.476 192.790 493.476 192.790 493.476 C 192.790 493.478 191.121 507.271 191.845 513.130 C 192.322 516.994 194.413 521.845 195.436 525.602 C 195.851 527.128 195.512 529.732 196.759 530.704 C 198.324 531.925 201.875 531.818 203.373 530.515 C 206.668 527.650 203.373 520.315 203.751 515.964 C 203.993 513.169 204.495 509.450 205.074 506.705 C 205.595 504.228 206.661 501.017 207.341 498.579 C 207.341 498.579 207.341 498.579 207.341 498.579 C 207.342 498.581 210.836 510.894 213.578 515.586 C 214.980 517.987 216.873 521.691 219.436 522.768 C 221.268 523.537 224.652 523.802 226.050 522.390 C 227.844 520.576 226.691 516.355 226.050 513.886 C 225.195 510.591 221.246 507.350 220.380 504.059 C 219.645 501.263 220.380 497.313 220.380 494.421 C 220.380 494.421 220.380 494.421 220.380 494.421 C 220.382 494.421 231.521 496.818 235.877 495.177 C 238.432 494.215 241.141 491.386 242.680 489.130 C 244.044 487.129 244.664 483.839 245.514 481.571 M 207.341 498.579 C 207.341 498.579 207.341 498.579 207.341 498.579 M 226.806 450.012 C 226.806 450.012 226.806 450.012 226.806 450.012 M 181.069 465.178 C 181.015 465.231 180.891 465.355 180.891 465.355 C 180.950 465.308 181.008 465.223 181.069 465.178 "/>
<path fill="none" stroke="#00000c" stroke-width="1" stroke-linecap="round" stroke-linejoin="round" d="M 207.341 498.579 C 207.341 498.579 207.341 498.579 207.341 498.579 C 206.661 501.017 205.595 504.228 205.074 506.705 C 204.495 509.450 203.993 513.169 203.751 515.964 C 203.373 520.315 206.668 527.650 203.373 530.515 C 201.875 531.818 198.324 531.925 196.759 530.704 C 195.512 529.732 195.851 527.128 195.436 525.602 C 194.413 521.845 192.322 516.994 191.845 513.130 C 191.121 507.271 192.790 493.478 192.790 493.476 C 192.790 493.476 192.790 493.476 192.790 493.476 C 190.522 494.723 186.901 495.657 185.231 497.634 C 182.628 500.716 182.567 506.666 181.262 510.484 C 180.009 514.151 180.019 520.534 176.727 522.578 C 175.186 523.536 172.125 523.675 170.680 522.578 C 168.377 520.831 169.171 515.995 168.790 513.130 C 168.484 510.820 169.990 506.933 168.252 505.382 C 168.464 504.257 168.770 502.560 169.013 501.290 C 169.373 499.405 169.595 496.818 170.252 495.016 C 171.255 492.266 173.230 488.806 175.082 486.540 M 179.639 482.440 C 182.413 480.743 187.095 480.528 189.846 478.794 C 191.940 477.475 194.099 474.878 195.770 473.053 C 197.410 471.261 198.562 467.514 200.873 466.764 C 201.716 466.491 202.944 466.957 203.789 467.220 C 205.517 467.758 207.469 469.328 209.166 469.954 C 210.803 470.558 214.816 471.321 214.817 471.321 M 168.228 505.528 C 168.228 505.528 168.228 505.528 168.228 505.528 C 166.884 504.162 163.710 506.331 162.142 505.382 C 160.787 504.561 160.003 502.282 159.614 500.747 C 158.526 496.452 159.161 490.238 160.457 486.001 C 161.858 481.420 165.235 475.644 168.673 472.307 C 171.699 469.370 180.890 465.356 180.891 465.355 C 183.147 463.128 185.854 460.322 188.054 458.404 C 192.265 454.732 197.609 449.093 202.801 447.028 C 205.408 445.990 209.269 445.589 212.070 445.764 C 216.662 446.051 222.385 448.738 226.806 450.012 C 232.418 459.480 245.512 481.568 245.514 481.571 C 244.664 483.839 244.044 487.129 242.680 489.130 C 241.141 491.386 238.432 494.215 235.877 495.177 C 231.521 496.818 220.382 494.421 220.380 494.421 C 220.380 497.313 219.645 501.263 220.380 504.059 C 221.246 507.350 225.195 510.591 226.050 513.886 C 226.691 516.355 227.844 520.576 226.050 522.390 C 224.652 523.802 221.268 523.537 219.436 522.768 C 216.873 521.691 214.980 517.987 213.578 515.586 C 210.836 510.894 207.342 498.581 207.341 498.579 C 207.341 498.579 207.341 498.579 207.341 498.579 M 226.806 450.012 C 226.806 450.012 226.806 450.012 226.806 450.012 M 245.514 481.571 C 245.514 481.571 245.514 481.571 245.514 481.571 M 220.380 494.421 C 220.380 494.421 220.380 494.421 220.380 494.421 M 181.069 465.178 C 181.015 465.231 180.891 465.355 180.891 465.355 C 180.950 465.308 181.008 465.223 181.069 465.178 C 181.608 464.781 179.946 466.281 179.582 466.843 C 177.737 469.699 174.838 474.073 175.486 477.410 C 175.859 479.331 178.393 480.931 179.639 482.440 C 179.639 482.440 179.639 482.440 179.639 482.440 M 192.790 493.476 C 192.790 493.476 192.790 493.476 192.790 493.476 "/>
<path fill="none" stroke="#00000c" stroke-width="1" stroke-linecap="round" stroke-linejoin="round" d="M 207.341 498.579 C 207.341 498.579 207.341 498.579 207.341 498.579 C 206.661 501.017 205.595 504.228 205.074 506.705 C 204.495 509.450 203.993 513.169 203.751 515.964 C 203.373 520.315 206.668 527.650 203.373 530.515 C 201.875 531.818 198.324 531.925 196.759 530.704 C 195.512 529.732 195.851 527.128 195.436 525.602 C 194.413 521.845 192.322 516.994 191.845 513.130 C 191.121 507.271 192.790 493.478 192.790 493.476 C 192.790 493.476 192.790 493.476 192.790 493.476 C 195.614 491.985 202.201 488.507 202.202 488.506 M 214.817 471.321 C 214.816 471.321 210.803 470.558 209.166 469.954 C 207.469 469.328 205.517 467.758 203.789 467.220 C 202.944 466.957 201.716 466.491 200.873 466.764 C 198.562 467.514 197.410 471.261 195.770 473.053 C 194.099 474.878 191.940 477.475 189.846 478.794 C 187.095 480.528 182.413 480.743 179.639 482.440 M 175.082 486.540 C 173.230 488.806 171.255 492.266 170.252 495.016 C 169.595 496.818 169.373 499.405 169.013 501.290 C 168.770 502.560 168.464 504.257 168.228 505.528 C 168.228 505.528 168.228 505.528 168.228 505.528 C 169.990 506.933 168.484 510.820 168.790 513.130 C 169.171 515.995 168.377 520.831 170.680 522.578 C 172.125 523.675 175.186 523.536 176.727 522.578 C 180.019 520.534 180.009 514.151 181.262 510.484 C 182.567 506.666 182.628 500.716 185.231 497.634 C 186.901 495.657 190.522 494.723 192.790 493.476 C 192.790 493.476 192.790 493.476 192.790 493.476 M 168.252 505.382 C 166.884 504.162 163.710 506.331 162.142 505.382 C 160.787 504.561 160.003 502.282 159.614 500.747 C 158.526 496.452 159.161 490.238 160.457 486.001 C 161.858 481.420 165.235 475.644 168.673 472.307 C 171.699 469.370 180.890 465.356 180.891 465.355 C 180.950 465.308 181.008 465.223 181.069 465.178 C 181.608 464.781 179.946 466.281 179.582 466.843 C 177.737 469.699 174.838 474.073 175.486 477.410 C 175.859 479.331 178.393 480.931 179.639 482.440 C 179.639 482.440 179.639 482.440 179.639 482.440 M 245.514 481.571 C 245.512 481.568 232.418 459.480 226.806 450.012 C 226.806 450.012 226.806 450.012 226.806 450.012 C 222.385 448.738 216.662 446.051 212.070 445.764 C 209.269 445.589 205.408 445.990 202.801 447.028 C 197.609 449.093 192.265 454.732 188.054 458.404 C 185.854 460.322 183.147 463.128 181.069 465.178 C 181.015 465.231 180.891 465.355 180.891 465.355 M 220.380 494.421 C 220.382 494.421 231.521 496.818 235.877 495.177 C 238.432 494.215 241.141 491.386 242.680 489.130 C 244.044 487.129 244.664 483.839 245.514 481.571 C 245.514 481.571 245.514 481.571 245.514 481.571 M 207.341 498.579 C 207.341 498.579 207.341 498.579 207.341 498.579 C 207.342 498.581 210.836 510.894 213.578 515.586 C 214.980 517.987 216.873 521.691 219.436 522.768 C 221.268 523.537 224.652 523.802 226.050 522.390 C 227.844 520.576 226.691 516.355 226.050 513.886 C 225.195 510.591 221.246 507.350 220.380 504.059 C 219.645 501.263 220.380 497.313 220.380 494.421 C 220.380 494.421 220.380 494.421 220.380 494.421 "/>
</g>
<g id="Layer_12">
<path fill="#666f6e" fill-rule="evenodd" stroke="none" d="M 268.629 473.978 C 268.629 473.978 268.629 473.978 268.629 473.978 C 264.603 469.225 258.388 463.492 255.209 458.136 C 251.515 451.911 249.208 442.349 246.636 435.583 C 246.636 435.583 246.636 435.583 246.636 435.583 C 239.367 439.497 222.409 448.629 222.406 448.630 C 222.909 451.650 223.390 455.713 224.083 458.695 C 225.329 464.053 226.499 471.598 229.488 476.215 C 232.482 480.838 243.279 488.328 243.281 488.330 C 250.885 484.024 268.626 473.980 268.629 473.978 C 268.629 473.978 268.629 473.978 268.629 473.978 Z"/>
<path fill="none" stroke="#00000c" stroke-width="1" stroke-linecap="round" stroke-linejoin="round" d="M 243.281 488.330 C 243.281 488.330 243.281 488.330 243.281 488.330 C 243.279 488.328 232.482 480.838 229.488 476.215 C 226.499 471.598 225.329 464.053 224.083 458.695 C 223.390 455.713 222.909 451.650 222.406 448.630 C 222.406 448.630 222.406 448.630 222.406 448.630 C 222.409 448.629 239.367 439.497 246.636 435.583 C 249.208 442.349 251.515 451.911 255.209 458.136 C 258.388 463.492 264.603 469.225 268.629 473.978 C 268.629 473.978 268.629 473.978 268.629 473.978 C 268.626 473.980 250.885 484.024 243.281 488.330 M 246.636 435.583 C 246.636 435.583 246.636 435.583 246.636 435.583 M 268.629 473.978 C 268.629 473.978 268.629 473.978 268.629 473.978 "/>
</g>
</g>
<g id="Layer_6">
<g id="Layer_3">
<path fill="#3d4144" fill-rule="evenodd" stroke="none" d="M 881.328 338.610 C 881.328 338.610 881.328 338.610 881.328 338.610 C 881.324 338.612 858.307 350.958 848.424 356.219 C 835.927 362.872 819.002 371.262 806.718 378.299 C 792.301 386.557 773.853 398.863 759.637 407.462 C 747.005 415.103 730.361 425.669 717.272 432.495 C 711.920 435.287 704.924 439.680 699.031 440.993 C 688.809 443.271 674.598 440.557 664.131 440.206 C 655.232 439.907 643.334 439.831 634.479 438.894 C 613.565 436.680 585.893 431.570 565.478 426.519 C 546.588 421.846 521.840 413.825 503.638 406.944 C 496.704 404.323 487.566 400.498 480.948 397.156 C 475.022 394.164 466.234 390.991 461.818 386.034 C 453.722 376.948 447.790 360.370 447.137 348.218 C 446.179 330.423 451.292 303.722 464.042 291.272 C 473.528 282.010 493.071 277.620 506.307 278.370 C 514.621 278.841 524.370 285.533 532.111 288.602 C 540.565 292.305 552.469 296.043 560.289 300.943 C 569.433 306.674 579.210 317.563 587.534 324.430 C 602.322 336.630 620.571 355.475 637.796 363.889 C 646.337 368.060 659.011 374.218 668.330 372.344 C 683.807 369.231 693.981 345.125 707.867 337.612 C 736.407 322.171 781.568 320.241 813.010 312.217 C 829.617 307.979 851.645 301.889 868.203 297.462 C 867.269 295.807 866.343 293.190 866.667 291.317 C 867.048 289.113 869.100 286.513 870.891 285.172 C 874.806 282.240 881.984 282.452 886.638 280.947 C 891.565 279.354 898.454 277.666 902.769 274.802 C 909.292 270.473 915.689 261.823 920.436 255.599 C 923.828 251.150 925.508 242.524 930.422 239.851 C 933.499 238.178 938.666 238.651 942.088 239.398 C 946.319 240.322 951.826 243.007 954.891 246.066 C 960.590 251.756 963.398 262.848 966.359 270.337 C 969.235 277.608 972.281 287.604 974.361 295.142 C 974.778 296.653 975.218 298.699 975.585 300.224 C 975.582 300.228 950.966 328.782 940.414 341.022 C 940.414 341.022 940.414 341.022 940.414 341.022 C 936.495 338.851 931.205 336.071 927.351 333.787 C 924.530 332.115 920.879 329.707 918.106 327.959 C 918.105 327.960 910.060 334.716 906.449 337.404 C 902.586 340.280 898.001 346.453 893.185 346.448 C 888.921 346.444 884.885 340.962 881.328 338.610 M 532.111 288.602 C 532.111 288.602 532.111 288.602 532.111 288.602 Z"/>
<path fill="none" stroke="#090909" stroke-width="1" stroke-linecap="round" stroke-linejoin="round" d="M 868.203 297.462 C 868.203 297.462 868.203 297.462 868.203 297.462 C 851.645 301.889 829.617 307.979 813.010 312.217 C 781.568 320.241 736.407 322.171 707.867 337.612 C 693.981 345.125 683.807 369.231 668.330 372.344 C 659.011 374.218 646.337 368.060 637.796 363.889 C 620.571 355.475 602.322 336.630 587.534 324.430 C 579.210 317.563 569.433 306.674 560.289 300.943 C 552.469 296.043 540.565 292.305 532.111 288.602 C 532.111 288.602 532.111 288.602 532.111 288.602 C 524.370 285.533 514.621 278.841 506.307 278.370 C 493.071 277.620 473.528 282.010 464.042 291.272 C 451.292 303.722 446.179 330.423 447.137 348.218 C 447.790 360.370 453.722 376.948 461.818 386.034 C 466.234 390.991 475.022 394.164 480.948 397.156 C 487.566 400.498 496.704 404.323 503.638 406.944 C 521.840 413.825 546.588 421.846 565.478 426.519 C 585.893 431.570 613.565 436.680 634.479 438.894 C 643.334 439.831 655.232 439.907 664.131 440.206 C 674.598 440.557 688.809 443.271 699.031 440.993 C 704.924 439.680 711.920 435.287 717.272 432.495 C 730.361 425.669 747.005 415.103 759.637 407.462 C 773.853 398.863 792.301 386.557 806.718 378.299 C 819.002 371.262 835.927 362.872 848.424 356.219 C 858.307 350.958 881.324 338.612 881.328 338.610 C 881.328 338.610 881.328 338.610 881.328 338.610 C 884.885 340.962 888.921 346.444 893.185 346.448 C 898.001 346.453 902.586 340.280 906.449 337.404 C 910.060 334.716 918.105 327.960 918.106 327.959 C 918.106 327.959 918.106 327.959 918.106 327.959 C 920.879 329.707 924.530 332.115 927.351 333.787 C 931.205 336.071 936.495 338.851 940.414 341.022 C 940.414 341.022 940.414 341.022 940.414 341.022 C 950.966 328.782 975.582 300.228 975.585 300.224 C 975.585 300.224 975.585 300.224 975.585 300.224 C 975.218 298.699 974.778 296.653 974.361 295.142 C 972.281 287.604 969.235 277.608 966.359 270.337 C 963.398 262.848 960.590 251.756 954.891 246.066 C 951.826 243.007 946.319 240.322 942.088 239.398 C 938.666 238.651 933.499 238.178 930.422 239.851 C 925.508 242.524 923.828 251.150 920.436 255.599 C 915.689 261.823 909.292 270.473 902.769 274.802 C 898.454 277.666 891.565 279.354 886.638 280.947 C 881.984 282.452 874.806 282.240 870.891 285.172 C 869.100 286.513 867.048 289.113 866.667 291.317 C 866.343 293.190 867.269 295.807 868.203 297.462 "/>
<path fill="none" stroke="#090909" stroke-width="1" stroke-linecap="round" stroke-linejoin="round" d="M 881.328 338.610 C 881.324 338.612 858.307 350.958 848.424 356.219 C 835.927 362.872 819.002 371.262 806.718 378.299 C 792.301 386.557 773.853 398.863 759.637 407.462 C 747.005 415.103 730.361 425.669 717.272 432.495 C 711.920 435.287 704.924 439.680 699.031 440.993 C 688.809 443.271 674.598 440.557 664.131 440.206 C 655.232 439.907 643.334 439.831 634.479 438.894 C 613.565 436.680 585.893 431.570 565.478 426.519 C 546.588 421.846 521.840 413.825 503.638 406.944 C 496.704 404.323 487.566 400.498 480.948 397.156 C 475.022 394.164 466.234 390.991 461.818 386.034 C 453.722 376.948 447.790 360.370 447.137 348.218 C 446.179 330.423 451.292 303.722 464.042 291.272 C 473.528 282.010 493.071 277.620 506.307 278.370 C 514.621 278.841 524.370 285.533 532.111 288.602 C 532.111 288.602 532.111 288.602 532.111 288.602 C 540.565 292.305 552.469 296.043 560.289 300.943 C 569.433 306.674 579.210 317.563 587.534 324.430 C 602.322 336.630 620.571 355.475 637.796 363.889 C 646.337 368.060 659.011 374.218 668.330 372.344 C 683.807 369.231 693.981 345.125 707.867 337.612 C 736.407 322.171 781.568 320.241 813.010 312.217 C 829.617 307.979 851.645 301.889 868.203 297.462 C 868.203 297.462 868.203 297.462 868.203 297.462 C 869.751 300.208 874.114 302.048 875.819 304.699 C 878.516 308.891 879.993 315.619 880.877 320.525 C 881.842 325.877 886.293 335.733 881.693 338.635 C 881.600 338.693 881.437 338.618 881.328 338.610 C 884.885 340.962 888.921 346.444 893.185 346.448 C 898.001 346.453 902.586 340.280 906.449 337.404 C 910.060 334.716 918.105 327.960 918.106 327.959 C 920.879 329.707 924.530 332.115 927.351 333.787 C 931.205 336.071 936.495 338.851 940.414 341.022 C 950.966 328.782 975.582 300.228 975.585 300.224 C 975.218 298.699 974.778 296.653 974.361 295.142 C 972.281 287.604 969.235 277.608 966.359 270.337 C 963.398 262.848 960.590 251.756 954.891 246.066 C 951.826 243.007 946.319 240.322 942.088 239.398 C 938.666 238.651 933.499 238.178 930.422 239.851 C 925.508 242.524 923.828 251.150 920.436 255.599 C 915.689 261.823 909.292 270.473 902.769 274.802 C 898.454 277.666 891.565 279.354 886.638 280.947 C 881.984 282.452 874.806 282.240 870.891 285.172 C 869.100 286.513 867.048 289.113 866.667 291.317 C 866.343 293.190 867.269 295.807 868.203 297.462 M 881.328 338.610 C 881.328 338.610 881.328 338.610 881.328 338.610 M 975.585 300.224 C 975.585 300.224 975.585 300.224 975.585 300.224 M 940.414 341.022 C 940.414 341.022 940.414 341.022 940.414 341.022 M 918.106 327.959 C 918.106 327.959 918.106 327.959 918.106 327.959 "/>
</g>
<g id="Layer_4">
<path fill="#396870" fill-rule="evenodd" stroke="none" d="M 986.396 386.465 C 986.396 386.465 986.396 386.465 986.396 386.465 C 982.310 386.360 976.668 387.363 972.776 386.114 C 968.076 384.606 963.000 379.950 959.256 376.732 C 951.167 369.784 940.029 360.052 935.250 350.519 C 933.117 346.265 930.900 339.764 931.662 335.067 C 932.557 329.558 937.857 323.482 941.596 319.339 C 945.745 314.741 953.415 310.941 957.876 306.645 C 961.091 303.550 966.355 299.637 967.534 295.332 C 969.356 288.678 964.219 279.577 962.633 272.863 C 960.680 264.594 957.729 253.655 955.627 245.422 C 955.627 245.422 955.627 245.422 955.627 245.422 C 955.857 245.065 956.041 244.467 956.394 244.230 C 956.739 243.998 957.347 243.904 957.757 243.974 C 958.460 244.095 959.250 244.754 959.762 245.249 C 960.960 246.409 961.989 248.455 962.730 249.948 C 964.096 252.702 965.138 256.705 966.192 259.593 C 970.599 271.671 976.818 287.648 981.150 299.752 C 986.928 315.895 994.719 337.406 999.677 353.819 C 1001.443 359.667 1003.382 367.582 1004.970 373.480 C 1004.970 373.480 1004.970 373.480 1004.970 373.480 C 1016.579 393.936 1031.801 421.358 1043.668 441.665 C 1051.070 454.330 1059.725 472.087 1068.824 483.592 C 1071.973 487.572 1077.166 491.998 1080.663 495.677 C 1085.858 501.142 1093.582 507.845 1097.680 514.174 C 1100.453 518.456 1101.360 525.760 1104.586 529.712 C 1108.246 534.196 1120.368 540.809 1120.370 540.810 C 1112.971 541.994 1102.980 546.559 1095.707 544.756 C 1088.526 542.976 1081.236 535.163 1075.977 529.958 C 1067.710 521.776 1059.516 508.374 1052.794 498.883 C 1045.736 488.919 1036.484 475.505 1030.104 465.095 C 1022.095 452.026 1012.778 433.806 1005.328 420.411 C 999.660 410.220 986.398 386.468 986.396 386.465 Z"/>
<path fill="none" stroke="#090909" stroke-width="1" stroke-linecap="round" stroke-linejoin="round" d="M 986.396 386.465 C 986.396 386.465 986.396 386.465 986.396 386.465 C 982.310 386.360 976.668 387.363 972.776 386.114 C 968.076 384.606 963.000 379.950 959.256 376.732 C 951.167 369.784 940.029 360.052 935.250 350.519 C 933.117 346.265 930.900 339.764 931.662 335.067 C 932.557 329.558 937.857 323.482 941.596 319.339 C 945.745 314.741 953.415 310.941 957.876 306.645 C 961.091 303.550 966.355 299.637 967.534 295.332 C 969.356 288.678 964.219 279.577 962.633 272.863 C 960.680 264.594 957.729 253.655 955.627 245.422 C 955.627 245.422 955.627 245.422 955.627 245.422 C 955.857 245.065 956.041 244.467 956.394 244.230 C 956.739 243.998 957.347 243.904 957.757 243.974 C 958.460 244.095 959.250 244.754 959.762 245.249 C 960.960 246.409 961.989 248.455 962.730 249.948 C 964.096 252.702 965.138 256.705 966.192 259.593 C 970.599 271.671 976.818 287.648 981.150 299.752 C 986.928 315.895 994.719 337.406 999.677 353.819 C 1001.443 359.667 1003.382 367.582 1004.970 373.480 C 1004.970 373.480 1004.970 373.480 1004.970 373.480 C 1016.579 393.936 1031.801 421.358 1043.668 441.665 C 1051.070 454.330 1059.725 472.087 1068.824 483.592 C 1071.973 487.572 1077.166 491.998 1080.663 495.677 C 1085.858 501.142 1093.582 507.845 1097.680 514.174 C 1100.453 518.456 1101.360 525.760 1104.586 529.712 C 1108.246 534.196 1120.368 540.809 1120.370 540.810 C 1120.370 540.810 1120.370 540.810 1120.370 540.810 C 1112.971 541.994 1102.980 546.559 1095.707 544.756 C 1088.526 542.976 1081.236 535.163 1075.977 529.958 C 1067.710 521.776 1059.516 508.374 1052.794 498.883 C 1045.736 488.919 1036.484 475.505 1030.104 465.095 C 1022.095 452.026 1012.778 433.806 1005.328 420.411 C 999.660 410.220 986.398 386.468 986.396 386.465 "/>
<path fill="none" stroke="#090909" stroke-width="1" stroke-linecap="round" stroke-linejoin="round" d="M 1120.370 540.810 C 1120.368 540.809 1108.246 534.196 1104.586 529.712 C 1101.360 525.760 1100.453 518.456 1097.680 514.174 C 1093.582 507.845 1085.858 501.142 1080.663 495.677 C 1077.166 491.998 1071.973 487.572 1068.824 483.592 C 1059.725 472.087 1051.070 454.330 1043.668 441.665 C 1031.801 421.358 1016.579 393.936 1004.970 373.480 C 1004.970 373.480 1004.970 373.480 1004.970 373.480 C 1003.382 367.582 1001.443 359.667 999.677 353.819 C 994.719 337.406 986.928 315.895 981.150 299.752 C 976.818 287.648 970.599 271.671 966.192 259.593 C 965.138 256.705 964.096 252.702 962.730 249.948 C 961.989 248.455 960.960 246.409 959.762 245.249 C 959.250 244.754 958.460 244.095 957.757 243.974 C 957.347 243.904 956.739 243.998 956.394 244.230 C 956.041 244.467 955.857 245.065 955.627 245.422 C 955.627 245.422 955.627 245.422 955.627 245.422 C 957.729 253.655 960.680 264.594 962.633 272.863 C 964.219 279.577 969.356 288.678 967.534 295.332 C 966.355 299.637 961.091 303.550 957.876 306.645 C 953.415 310.941 945.745 314.741 941.596 319.339 C 937.857 323.482 932.557 329.558 931.662 335.067 C 930.900 339.764 933.117 346.265 935.250 350.519 C 940.029 360.052 951.167 369.784 959.256 376.732 C 963.000 379.950 968.076 384.606 972.776 386.114 C 976.668 387.363 982.310 386.360 986.396 386.465 C 986.396 386.465 986.396 386.465 986.396 386.465 C 986.708 386.356 987.130 386.227 987.435 386.100 C 989.419 385.277 992.013 384.022 993.825 382.869 C 995.456 381.831 997.419 380.141 998.903 378.902 C 1000.777 377.338 1004.969 373.481 1004.970 373.480 M 986.396 386.465 C 986.398 386.468 999.660 410.220 1005.328 420.411 C 1012.778 433.806 1022.095 452.026 1030.104 465.095 C 1036.484 475.505 1045.736 488.919 1052.794 498.883 C 1059.516 508.374 1067.710 521.776 1075.977 529.958 C 1081.236 535.163 1088.526 542.976 1095.707 544.756 C 1102.980 546.559 1112.971 541.994 1120.370 540.810 C 1120.370 540.810 1120.370 540.810 1120.370 540.810 "/>
<path fill="none" stroke="#090909" stroke-width="1" stroke-linecap="round" stroke-linejoin="round" d="M 998.903 378.902 C 998.905 378.907 1017.089 413.826 1024.932 428.769 C 1028.590 435.740 1033.147 445.218 1037.173 451.984 C 1043.672 462.907 1052.780 477.300 1060.859 487.111 C 1067.677 495.390 1078.363 504.997 1086.033 512.493 C 1091.602 517.936 1097.783 527.113 1104.859 530.363 C 1104.942 530.401 1105.155 530.427 1105.155 530.427 M 1120.370 540.810 C 1120.368 540.809 1108.246 534.196 1104.586 529.712 C 1101.360 525.760 1100.453 518.456 1097.680 514.174 C 1093.582 507.845 1085.858 501.142 1080.663 495.677 C 1077.166 491.998 1071.973 487.572 1068.824 483.592 C 1059.725 472.087 1051.070 454.330 1043.668 441.665 C 1031.801 421.358 1016.579 393.936 1004.970 373.480 C 1004.970 373.480 1004.970 373.480 1004.970 373.480 C 1003.382 367.582 1001.443 359.667 999.677 353.819 C 994.719 337.406 986.928 315.895 981.150 299.752 C 976.818 287.648 970.599 271.671 966.192 259.593 C 965.138 256.705 964.096 252.702 962.730 249.948 C 961.989 248.455 960.960 246.409 959.762 245.249 C 959.250 244.754 958.460 244.095 957.757 243.974 C 957.347 243.904 956.739 243.998 956.394 244.230 C 956.041 244.467 955.857 245.065 955.627 245.422 C 955.627 245.422 955.627 245.422 955.627 245.422 C 957.729 253.655 960.680 264.594 962.633 272.863 C 964.219 279.577 969.356 288.678 967.534 295.332 C 966.355 299.637 961.091 303.550 957.876 306.645 C 953.415 310.941 945.745 314.741 941.596 319.339 C 937.857 323.482 932.557 329.558 931.662 335.067 C 930.900 339.764 933.117 346.265 935.250 350.519 C 940.029 360.052 951.167 369.784 959.256 376.732 C 963.000 379.950 968.076 384.606 972.776 386.114 C 976.668 387.363 982.310 386.360 986.396 386.465 C 986.396 386.465 986.396 386.465 986.396 386.465 C 986.708 386.356 987.130 386.227 987.435 386.100 C 989.419 385.277 992.013 384.022 993.825 382.869 C 995.456 381.831 997.419 380.141 998.903 378.902 C 1000.777 377.338 1004.969 373.481 1004.970 373.480 M 986.396 386.465 C 986.398 386.468 999.660 410.220 1005.328 420.411 C 1012.778 433.806 1022.095 452.026 1030.104 465.095 C 1036.484 475.505 1045.736 488.919 1052.794 498.883 C 1059.516 508.374 1067.710 521.776 1075.977 529.958 C 1081.236 535.163 1088.526 542.976 1095.707 544.756 C 1102.980 546.559 1112.971 541.994 1120.370 540.810 C 1120.370 540.810 1120.370 540.810 1120.370 540.810 "/>
</g>
<g id="Layer_5">
<path fill="#396870" fill-rule="evenodd" stroke="#090909" stroke-width="1" stroke-linecap="round" stroke-linejoin="round" d="M 925.055 254.196 C 929.837 256.843 932.809 264.359 935.554 269.086 C 941.508 279.335 946.553 294.474 951.819 305.093 C 952.634 306.737 953.175 309.452 954.682 310.498 C 957.183 312.234 962.185 309.702 964.800 311.261 C 968.461 313.445 971.235 319.295 972.054 323.479 C 972.596 326.253 972.455 330.466 970.908 332.832 C 968.427 336.628 962.053 339.404 957.546 339.895 C 953.900 340.293 948.300 339.438 945.710 336.841 C 943.855 334.981 943.767 331.014 943.228 328.442 C 942.661 325.730 942.994 321.895 942.083 319.279 C 941.628 317.971 940.502 316.460 939.793 315.270 C 933.243 304.280 923.839 290.039 917.037 279.203 C 914.452 275.085 909.827 270.121 908.447 265.459 C 907.926 263.698 907.428 261.072 908.065 259.350 C 908.857 257.213 911.472 255.109 913.469 254.011 C 914.289 253.560 915.543 253.268 916.474 253.179 C 916.418 253.144 922.787 252.941 925.055 254.196 Z"/>
</g>
</g>
<g id="Layer_6">
<g id="Layer_1">
<path fill="#3d4144" fill-rule="evenodd" stroke="none" d="M 442.536 412.654 C 442.536 412.654 442.536 412.654 442.536 412.654 C 437.074 401.098 426.132 386.789 424.328 374.136 C 420.662 348.437 421.197 305.141 441.836 289.396 C 455.921 278.651 483.385 286.791 500.889 289.519 C 512.096 291.266 526.662 295.977 537.070 300.483 C 543.828 303.409 552.213 308.628 558.449 312.543 C 568.148 318.632 580.042 328.310 589.696 334.471 C 606.461 345.170 628.164 361.790 647.255 367.362 C 654.388 369.444 665.430 373.164 671.924 369.555 C 675.918 367.335 677.014 360.167 679.599 356.398 C 685.613 347.628 694.453 336.404 702.075 328.989 C 712.165 319.172 728.415 309.348 739.351 300.483 C 748.774 292.845 761.256 282.525 770.050 274.170 C 778.302 266.329 788.357 254.924 796.202 246.676 C 796.202 246.676 796.202 246.676 796.202 246.676 C 804.816 254.450 824.913 272.585 824.916 272.588 C 817.352 286.665 807.508 305.565 799.704 319.510 C 785.080 345.641 763.360 379.223 749.280 405.651 C 743.669 416.182 740.604 433.342 731.772 441.367 C 727.035 445.671 718.423 448.437 712.163 449.771 C 703.121 451.697 690.562 450.526 681.348 449.771 C 662.207 448.202 637.504 439.437 618.319 438.566 C 609.062 438.146 596.757 441.157 587.504 440.667 C 575.776 440.045 560.465 436.150 548.986 433.664 C 529.912 429.533 505.163 421.023 485.957 417.556 C 473.056 415.227 442.540 412.654 442.536 412.654 C 442.536 412.654 442.536 412.654 442.536 412.654 Z"/>
<path fill="none" stroke="#090909" stroke-width="1" stroke-linecap="round" stroke-linejoin="round" d="M 824.916 272.588 C 824.916 272.588 824.916 272.588 824.916 272.588 C 824.913 272.585 804.816 254.450 796.202 246.676 C 788.357 254.924 778.302 266.329 770.050 274.170 C 761.256 282.525 748.774 292.845 739.351 300.483 C 728.415 309.348 712.165 319.172 702.075 328.989 C 694.453 336.404 685.613 347.628 679.599 356.398 C 677.014 360.167 675.918 367.335 671.924 369.555 C 665.430 373.164 654.388 369.444 647.255 367.362 C 628.164 361.790 606.461 345.170 589.696 334.471 C 580.042 328.310 568.148 318.632 558.449 312.543 C 552.213 308.628 543.828 303.409 537.070 300.483 C 526.662 295.977 512.096 291.266 500.889 289.519 C 483.385 286.791 455.921 278.651 441.836 289.396 C 421.197 305.141 420.662 348.437 424.328 374.136 C 426.132 386.789 437.074 401.098 442.536 412.654 C 442.536 412.654 442.536 412.654 442.536 412.654 C 442.540 412.654 473.056 415.227 485.957 417.556 C 505.163 421.023 529.912 429.533 548.986 433.664 C 560.465 436.150 575.776 440.045 587.504 440.667 C 596.757 441.157 609.062 438.146 618.319 438.566 C 637.504 439.437 662.207 448.202 681.348 449.771 C 690.562 450.526 703.121 451.697 712.163 449.771 C 718.423 448.437 727.035 445.671 731.772 441.367 C 740.604 433.342 743.669 416.182 749.280 405.651 C 763.360 379.223 785.080 345.641 799.704 319.510 C 807.508 305.565 817.352 286.665 824.916 272.588 M 796.202 246.676 C 796.202 246.676 796.202 246.676 796.202 246.676 M 442.536 412.654 C 442.536 412.654 442.536 412.654 442.536 412.654 "/>
</g>
<g id="Layer_3">
<path fill="#3d4144" fill-rule="evenodd" stroke="#090909" stroke-width="1" stroke-linecap="round" stroke-linejoin="round" d="M 882.375 183.478 C 882.375 183.478 882.375 183.478 882.375 183.478 C 884.551 194.357 893.531 209.357 889.628 219.743 C 887.630 225.057 880.339 229.363 875.504 232.340 C 869.238 236.198 857.319 235.473 852.599 241.120 C 850.693 243.401 851.271 248.011 849.928 250.663 C 846.256 257.910 836.174 264.100 832.367 271.277 C 830.127 275.502 830.344 282.505 827.787 286.546 C 826.184 289.079 823.512 293.754 820.534 293.418 C 819.568 293.308 818.802 291.922 818.243 291.127 C 815.821 287.683 815.086 281.747 812.899 278.148 C 810.158 273.637 805.637 267.999 801.447 264.787 C 796.527 261.016 787.039 260.475 782.742 256.008 C 781.144 254.347 780.337 251.198 779.306 249.136 C 779.306 249.136 779.306 249.136 779.306 249.136 C 782.628 246.846 787.310 244.122 790.377 241.501 C 795.490 237.132 802.249 230.891 805.646 225.087 C 809.287 218.866 811.832 209.311 812.899 202.182 C 813.679 196.973 809.687 188.798 812.899 184.623 C 815.662 181.032 822.902 180.922 827.405 180.424 C 835.629 179.515 846.629 182.256 854.890 182.714 C 863.126 183.171 882.372 183.478 882.375 183.478 C 882.375 183.478 882.375 183.478 882.375 183.478 Z"/>
</g>
<g id="Layer_4">
<path fill="#396870" fill-rule="evenodd" stroke="none" d="M 1135.866 113.775 C 1137.384 114.630 1139.061 116.286 1140.430 117.361 C 1140.431 117.361 1145.907 116.677 1148.255 116.383 C 1148.254 116.385 1146.349 127.298 1143.364 130.728 C 1138.365 136.474 1127.441 138.746 1120.217 141.161 C 1104.299 146.482 1081.970 149.627 1065.447 152.571 C 1055.124 154.410 1040.915 154.722 1030.888 157.788 C 1022.102 160.474 1011.569 167.088 1003.177 170.828 C 985.558 178.681 960.917 186.631 943.842 195.606 C 938.749 198.283 932.305 202.486 927.541 205.712 C 920.480 210.495 912.248 218.657 904.720 222.665 C 895.101 227.786 880.680 230.953 870.378 234.504 C 870.377 234.501 865.894 210.650 863.642 200.496 C 862.594 195.773 863.341 188.165 859.842 184.824 C 858.973 183.994 857.219 183.800 856.044 183.547 C 853.071 182.908 848.968 183.031 845.940 182.760 C 839.365 182.171 830.620 181.181 824.054 180.505 C 822.739 178.637 819.355 176.542 819.668 174.278 C 820.033 171.637 824.239 169.833 826.729 168.879 C 838.365 164.419 855.805 169.481 868.265 169.294 C 883.477 169.066 903.801 168.762 918.937 167.217 C 937.788 165.294 962.720 160.838 981.240 156.834 C 988.537 155.256 998.236 152.923 1005.331 150.603 C 1006.680 150.162 1008.443 149.469 1009.752 148.919 C 1024.176 142.866 1042.195 132.025 1056.834 126.513 C 1070.577 121.338 1089.495 115.889 1103.917 113.123 C 1110.684 111.825 1119.908 109.598 1126.738 110.515 C 1129.620 110.902 1133.332 112.349 1135.866 113.775 M 824.054 180.505 C 824.054 180.505 824.054 180.505 824.054 180.505 Z"/>
<path fill="none" stroke="#090909" stroke-width="1" stroke-linecap="round" stroke-linejoin="round" d="M 870.378 234.504 C 870.378 234.504 870.378 234.504 870.378 234.504 C 870.377 234.501 865.894 210.650 863.642 200.496 C 862.594 195.773 863.341 188.165 859.842 184.824 C 858.973 183.994 857.219 183.800 856.044 183.547 C 853.071 182.908 848.968 183.031 845.940 182.760 C 839.365 182.171 830.620 181.181 824.054 180.505 C 822.739 178.637 819.355 176.542 819.668 174.278 C 820.033 171.637 824.239 169.833 826.729 168.879 C 838.365 164.419 855.805 169.481 868.265 169.294 C 883.477 169.066 903.801 168.762 918.937 167.217 C 937.788 165.294 962.720 160.838 981.240 156.834 C 988.537 155.256 998.236 152.923 1005.331 150.603 C 1006.680 150.162 1008.443 149.469 1009.752 148.919 C 1024.176 142.866 1042.195 132.025 1056.834 126.513 C 1070.577 121.338 1089.495 115.889 1103.917 113.123 C 1110.684 111.825 1119.908 109.598 1126.738 110.515 C 1129.620 110.902 1133.332 112.349 1135.866 113.775 C 1137.384 114.630 1139.061 116.286 1140.430 117.361 C 1140.430 117.361 1140.430 117.361 1140.430 117.361 C 1140.431 117.361 1145.907 116.677 1148.255 116.383 C 1148.255 116.383 1148.255 116.383 1148.255 116.383 C 1148.254 116.385 1146.349 127.298 1143.364 130.728 C 1138.365 136.474 1127.441 138.746 1120.217 141.161 C 1104.299 146.482 1081.970 149.627 1065.447 152.571 C 1055.124 154.410 1040.915 154.722 1030.888 157.788 C 1022.102 160.474 1011.569 167.088 1003.177 170.828 C 985.558 178.681 960.917 186.631 943.842 195.606 C 938.749 198.283 932.305 202.486 927.541 205.712 C 920.480 210.495 912.248 218.657 904.720 222.665 C 895.101 227.786 880.680 230.953 870.378 234.504 M 824.054 180.505 C 824.054 180.505 824.054 180.505 824.054 180.505 "/>
<path fill="none" stroke="#396870" stroke-width="1" stroke-linecap="butt" stroke-linejoin="round" d="M 1135.866 113.775 C 1137.384 114.630 1139.061 116.286 1140.430 117.361 "/>
<path fill="none" stroke="#396870" stroke-width="1" stroke-linecap="butt" stroke-linejoin="round" d="M 1140.430 117.361 C 1140.431 117.361 1145.907 116.677 1148.255 116.383 "/>
<path fill="none" stroke="#396870" stroke-width="1" stroke-linecap="butt" stroke-linejoin="round" d="M 1148.255 116.383 C 1148.254 116.385 1146.349 127.298 1143.364 130.728 "/>
<path fill="none" stroke="#396870" stroke-width="1" stroke-linecap="butt" stroke-linejoin="round" d="M 1143.364 130.728 C 1138.365 136.474 1127.441 138.746 1120.217 141.161 "/>
<path fill="none" stroke="#396870" stroke-width="1" stroke-linecap="butt" stroke-linejoin="round" d="M 1120.217 141.161 C 1104.299 146.482 1081.970 149.627 1065.447 152.571 "/>
<path fill="none" stroke="#396870" stroke-width="1" stroke-linecap="butt" stroke-linejoin="round" d="M 1065.447 152.571 C 1055.124 154.410 1040.915 154.722 1030.888 157.788 "/>
<path fill="none" stroke="#396870" stroke-width="1" stroke-linecap="butt" stroke-linejoin="round" d="M 1030.888 157.788 C 1022.102 160.474 1011.569 167.088 1003.177 170.828 "/>
<path fill="none" stroke="#396870" stroke-width="1" stroke-linecap="butt" stroke-linejoin="round" d="M 1003.177 170.828 C 985.558 178.681 960.917 186.631 943.842 195.606 "/>
<path fill="none" stroke="#396870" stroke-width="1" stroke-linecap="butt" stroke-linejoin="round" d="M 943.842 195.606 C 938.749 198.283 932.305 202.486 927.541 205.712 "/>
<path fill="none" stroke="#396870" stroke-width="1" stroke-linecap="butt" stroke-linejoin="round" d="M 927.541 205.712 C 920.480 210.495 912.248 218.657 904.720 222.665 "/>
<path fill="none" stroke="#396870" stroke-width="1" stroke-linecap="butt" stroke-linejoin="round" d="M 904.720 222.665 C 895.101 227.786 880.680 230.953 870.378 234.504 "/>
<path fill="none" stroke="#396870" stroke-width="1" stroke-linecap="butt" stroke-linejoin="round" d="M 870.378 234.504 C 870.377 234.501 865.894 210.650 863.642 200.496 "/>
<path fill="none" stroke="#396870" stroke-width="1" stroke-linecap="butt" stroke-linejoin="round" d="M 863.642 200.496 C 862.594 195.773 863.341 188.165 859.842 184.824 "/>
<path fill="none" stroke="#396870" stroke-width="1" stroke-linecap="butt" stroke-linejoin="round" d="M 859.842 184.824 C 858.973 183.994 857.219 183.800 856.044 183.547 "/>
<path fill="none" stroke="#396870" stroke-width="1" stroke-linecap="butt" stroke-linejoin="round" d="M 856.044 183.547 C 853.071 182.908 848.968 183.031 845.940 182.760 "/>
<path fill="none" stroke="#396870" stroke-width="1" stroke-linecap="butt" stroke-linejoin="round" d="M 845.940 182.760 C 839.365 182.171 830.620 181.181 824.054 180.505 "/>
<path fill="none" stroke="#396870" stroke-width="1" stroke-linecap="butt" stroke-linejoin="round" d="M 824.054 180.505 C 822.739 178.637 819.355 176.542 819.668 174.278 "/>
<path fill="none" stroke="#396870" stroke-width="1" stroke-linecap="butt" stroke-linejoin="round" d="M 819.668 174.278 C 820.033 171.637 824.239 169.833 826.729 168.879 "/>
<path fill="none" stroke="#396870" stroke-width="1" stroke-linecap="butt" stroke-linejoin="round" d="M 826.729 168.879 C 838.365 164.419 855.805 169.481 868.265 169.294 "/>
<path fill="none" stroke="#396870" stroke-width="1" stroke-linecap="butt" stroke-linejoin="round" d="M 868.265 169.294 C 883.477 169.066 903.801 168.762 918.937 167.217 "/>
<path fill="none" stroke="#396870" stroke-width="1" stroke-linecap="butt" stroke-linejoin="round" d="M 918.937 167.217 C 937.788 165.294 962.720 160.838 981.240 156.834 "/>
<path fill="none" stroke="#396870" stroke-width="1" stroke-linecap="butt" stroke-linejoin="round" d="M 981.240 156.834 C 988.537 155.256 998.236 152.923 1005.331 150.603 "/>
<path fill="none" stroke="#396870" stroke-width="1" stroke-linecap="butt" stroke-linejoin="round" d="M 1005.331 150.603 C 1006.680 150.162 1008.443 149.469 1009.752 148.919 "/>
<path fill="none" stroke="#396870" stroke-width="1" stroke-linecap="butt" stroke-linejoin="round" d="M 1009.752 148.919 C 1024.176 142.866 1042.195 132.025 1056.834 126.513 "/>
<path fill="none" stroke="#396870" stroke-width="1" stroke-linecap="butt" stroke-linejoin="round" d="M 1056.834 126.513 C 1070.577 121.338 1089.495 115.889 1103.917 113.123 "/>
<path fill="none" stroke="#396870" stroke-width="1" stroke-linecap="butt" stroke-linejoin="round" d="M 1103.917 113.123 C 1110.684 111.825 1119.908 109.598 1126.738 110.515 "/>
<path fill="none" stroke="#396870" stroke-width="1" stroke-linecap="butt" stroke-linejoin="round" d="M 1126.738 110.515 C 1129.620 110.902 1133.332 112.349 1135.866 113.775 "/>
<path fill="none" stroke="#396870" stroke-width="1" stroke-linecap="butt" stroke-linejoin="round" d="M 824.054 180.505 C 824.054 180.505 824.054 180.505 824.054 180.505 "/>
<path fill="#396870" fill-rule="evenodd" stroke="none" d="M 1135.866 113.775 C 1137.384 114.630 1139.061 116.286 1140.430 117.361 C 1140.431 117.361 1145.907 116.677 1148.255 116.383 C 1148.254 116.385 1146.349 127.298 1143.364 130.728 C 1138.365 136.474 1127.441 138.746 1120.217 141.161 C 1104.299 146.482 1081.970 149.627 1065.447 152.571 C 1055.124 154.410 1040.915 154.722 1030.888 157.788 C 1022.102 160.474 1011.569 167.088 1003.177 170.828 C 985.558 178.681 960.917 186.631 943.842 195.606 C 938.749 198.283 932.305 202.486 927.541 205.712 C 920.480 210.495 912.248 218.657 904.720 222.665 C 895.101 227.786 880.680 230.953 870.378 234.504 C 870.377 234.501 865.894 210.650 863.642 200.496 C 862.594 195.773 863.341 188.165 859.842 184.824 C 858.973 183.994 857.219 183.800 856.044 183.547 C 853.071 182.908 848.968 183.031 845.940 182.760 C 839.365 182.171 830.620 181.181 824.054 180.505 C 822.739 178.637 819.355 176.542 819.668 174.278 C 820.033 171.637 824.239 169.833 826.729 168.879 C 838.365 164.419 855.805 169.481 868.265 169.294 C 883.477 169.066 903.801 168.762 918.937 167.217 C 937.788 165.294 962.720 160.838 981.240 156.834 C 988.537 155.256 998.236 152.923 1005.331 150.603 C 1006.680 150.162 1008.443 149.469 1009.752 148.919 C 1024.176 142.866 1042.195 132.025 1056.834 126.513 C 1070.577 121.338 1089.495 115.889 1103.917 113.123 C 1110.684 111.825 1119.908 109.598 1126.738 110.515 C 1129.620 110.902 1133.332 112.349 1135.866 113.775 M 824.054 180.505 C 824.054 180.505 824.054 180.505 824.054 180.505 Z"/>
<path fill="none" stroke="#090909" stroke-width="1" stroke-linecap="round" stroke-linejoin="round" d="M 1138.379 115.940 C 1138.379 115.940 1138.379 115.940 1138.379 115.940 C 1132.425 118.221 1124.593 121.563 1118.533 123.544 C 1098.751 130.011 1071.700 136.445 1051.389 140.980 C 1038.978 143.750 1009.756 148.919 1009.752 148.919 C 1024.176 142.866 1042.195 132.025 1056.834 126.513 C 1070.577 121.338 1089.495 115.889 1103.917 113.123 C 1110.684 111.825 1119.908 109.598 1126.738 110.515 C 1129.620 110.902 1133.332 112.349 1135.866 113.775 C 1137.384 114.630 1139.061 116.286 1140.430 117.361 C 1140.430 117.361 1140.430 117.361 1140.430 117.361 C 1140.431 117.361 1145.907 116.677 1148.255 116.383 C 1148.255 116.383 1148.255 116.383 1148.255 116.383 C 1148.254 116.385 1146.349 127.298 1143.364 130.728 C 1138.365 136.474 1127.441 138.746 1120.217 141.161 C 1104.299 146.482 1081.970 149.627 1065.447 152.571 C 1055.124 154.410 1040.915 154.722 1030.888 157.788 C 1022.102 160.474 1011.569 167.088 1003.177 170.828 C 985.558 178.681 960.917 186.631 943.842 195.606 C 938.749 198.283 932.305 202.486 927.541 205.712 C 920.480 210.495 912.248 218.657 904.720 222.665 C 895.101 227.786 880.680 230.953 870.378 234.504 C 870.378 234.504 870.378 234.504 870.378 234.504 C 870.377 234.501 865.894 210.650 863.642 200.496 C 862.594 195.773 863.341 188.165 859.842 184.824 C 858.973 183.994 857.219 183.800 856.044 183.547 C 853.071 182.908 848.968 183.031 845.940 182.760 C 839.365 182.171 830.620 181.181 824.054 180.505 C 822.739 178.637 819.355 176.542 819.668 174.278 C 820.033 171.637 824.239 169.833 826.729 168.879 C 838.365 164.419 855.805 169.481 868.265 169.294 C 883.477 169.066 903.801 168.762 918.937 167.217 C 937.788 165.294 962.720 160.838 981.240 156.834 C 988.537 155.256 998.236 152.923 1005.331 150.603 C 1006.680 150.162 1008.443 149.469 1009.752 148.919 M 824.054 180.505 C 824.054 180.505 824.054 180.505 824.054 180.505 "/>
</g>
<g id="Layer_5">
<path fill="#396870" fill-rule="evenodd" stroke="none" d="M 869.039 218.299 C 869.039 218.299 869.039 218.299 869.039 218.299 C 873.411 218.727 879.397 220.959 883.613 219.725 C 886.450 218.894 890.076 216.435 891.533 213.864 C 893.366 210.630 893.771 204.996 892.484 201.508 C 890.843 197.062 885.692 191.662 881.078 190.578 C 878.262 189.917 874.269 191.565 871.732 192.954 C 869.873 193.972 868.343 196.651 866.505 197.706 C 860.378 201.225 850.632 202.229 843.694 203.567 C 841.008 204.085 837.391 204.611 834.665 204.835 C 823.961 205.713 809.605 205.056 798.865 205.151 C 798.865 205.151 798.865 205.151 798.865 205.151 C 798.960 210.426 799.182 222.733 799.182 222.735 C 810.302 223.495 836.245 225.269 836.249 225.269 C 840.098 224.319 845.207 222.952 849.080 222.101 C 855.033 220.793 869.037 218.300 869.039 218.299 C 869.039 218.299 869.039 218.299 869.039 218.299 Z"/>
<path fill="none" stroke="#090909" stroke-width="1" stroke-linecap="round" stroke-linejoin="round" d="M 799.182 222.735 C 799.182 222.735 799.182 222.735 799.182 222.735 C 799.182 222.733 798.960 210.426 798.865 205.151 C 809.605 205.056 823.961 205.713 834.665 204.835 C 837.391 204.611 841.008 204.085 843.694 203.567 C 850.632 202.229 860.378 201.225 866.505 197.706 C 868.343 196.651 869.873 193.972 871.732 192.954 C 874.269 191.565 878.262 189.917 881.078 190.578 C 885.692 191.662 890.843 197.062 892.484 201.508 C 893.771 204.996 893.366 210.630 891.533 213.864 C 890.076 216.435 886.450 218.894 883.613 219.725 C 879.397 220.959 873.411 218.727 869.039 218.299 C 869.039 218.299 869.039 218.299 869.039 218.299 C 869.037 218.300 855.033 220.793 849.080 222.101 C 845.207 222.952 840.098 224.319 836.249 225.269 C 836.249 225.269 836.249 225.269 836.249 225.269 C 836.245 225.269 810.302 223.495 799.182 222.735 M 798.865 205.151 C 798.865 205.151 798.865 205.151 798.865 205.151 M 869.039 218.299 C 869.039 218.299 869.039 218.299 869.039 218.299 "/>
</g>
</g>
<g id="Layer_3">
<path fill="#090b0a" fill-rule="evenodd" stroke="none" d="M 285.134 185.932 C 285.134 185.932 285.134 185.932 285.134 185.932 C 286.791 185.925 288.999 185.916 290.656 185.910 C 290.656 185.910 290.656 185.910 290.656 185.910 C 290.326 192.425 289.556 207.626 289.556 207.628 C 286.752 209.195 282.435 210.535 280.209 212.851 C 275.630 217.614 273.091 226.608 271.137 232.920 C 268.170 242.504 265.639 265.906 265.639 265.909 C 262.917 258.734 257.769 249.571 256.567 241.992 C 255.577 235.754 255.943 227.100 257.407 220.956 C 258.442 216.613 263.406 207.337 263.406 207.336 C 262.579 205.487 261.122 203.143 260.650 201.174 C 259.765 197.483 259.505 192.232 260.325 188.526 C 260.956 185.680 264.541 179.771 264.541 179.770 C 269.309 179.965 276.212 178.193 280.432 180.419 C 282.355 181.433 285.134 185.932 285.134 185.932 C 285.134 185.932 285.134 185.932 285.134 185.932 Z"/>
<path fill="none" stroke="#090b0a" stroke-width="1" stroke-linecap="round" stroke-linejoin="round" d="M 289.556 207.628 C 289.556 207.628 289.556 207.628 289.556 207.628 C 289.556 207.626 290.326 192.425 290.656 185.910 C 288.999 185.916 286.791 185.925 285.134 185.932 C 285.134 185.932 285.134 185.932 285.134 185.932 C 285.134 185.932 282.355 181.433 280.432 180.419 C 276.212 178.193 269.309 179.965 264.541 179.770 C 264.541 179.770 264.541 179.770 264.541 179.770 C 264.541 179.771 260.956 185.680 260.325 188.526 C 259.505 192.232 259.765 197.483 260.650 201.174 C 261.122 203.143 262.579 205.487 263.406 207.336 C 263.406 207.336 263.406 207.336 263.406 207.336 C 263.406 207.337 258.442 216.613 257.407 220.956 C 255.943 227.100 255.577 235.754 256.567 241.992 C 257.769 249.571 262.917 258.734 265.639 265.909 C 265.639 265.909 265.639 265.909 265.639 265.909 C 265.639 265.906 268.170 242.504 271.137 232.920 C 273.091 226.608 275.630 217.614 280.209 212.851 C 282.435 210.535 286.752 209.195 289.556 207.628 M 290.656 185.910 C 290.656 185.910 290.656 185.910 290.656 185.910 M 285.134 185.932 C 285.134 185.932 285.134 185.932 285.134 185.932 "/>
<path fill="#1f2525" fill-rule="evenodd" stroke="none" d="M 271.005 213.250 C 271.005 213.250 271.005 213.250 271.005 213.250 C 269.175 213.091 266.736 212.879 264.906 212.720 C 264.906 212.720 264.906 212.720 264.906 212.720 C 264.111 214.748 262.829 217.379 262.255 219.481 C 260.910 224.403 260.063 231.221 259.868 236.319 C 259.697 240.818 260.796 251.298 260.796 251.300 C 261.711 251.180 263.845 250.902 263.846 250.902 C 263.925 249.152 263.961 246.814 264.111 245.069 C 264.566 239.750 265.319 232.642 266.497 227.436 C 267.483 223.081 271.004 213.252 271.005 213.250 C 271.005 213.250 271.005 213.250 271.005 213.250 Z"/>
<path fill="none" stroke="#090b0a" stroke-width="1" stroke-linecap="round" stroke-linejoin="round" d="M 260.796 251.300 C 260.796 251.300 260.796 251.300 260.796 251.300 C 260.796 251.298 259.697 240.818 259.868 236.319 C 260.063 231.221 260.910 224.403 262.255 219.481 C 262.829 217.379 264.111 214.748 264.906 212.720 C 266.736 212.879 269.175 213.091 271.005 213.250 C 271.005 213.250 271.005 213.250 271.005 213.250 C 271.004 213.252 267.483 223.081 266.497 227.436 C 265.319 232.642 264.566 239.750 264.111 245.069 C 263.961 246.814 263.925 249.152 263.846 250.902 C 263.846 250.902 263.846 250.902 263.846 250.902 C 263.845 250.902 261.711 251.180 260.796 251.300 M 264.906 212.720 C 264.906 212.720 264.906 212.720 264.906 212.720 M 271.005 213.250 C 271.005 213.250 271.005 213.250 271.005 213.250 "/>
<path fill="#73cec9" fill-rule="evenodd" stroke="#090b0a" stroke-width="1" stroke-linecap="round" stroke-linejoin="round" d="M 268.904 208.674 C 268.904 208.674 268.904 208.674 268.904 208.674 C 268.600 206.962 268.099 204.693 267.891 202.966 C 267.551 200.137 266.996 196.312 267.338 193.483 C 267.574 191.540 268.627 189.101 269.180 187.223 C 269.180 187.223 269.180 187.223 269.180 187.223 C 268.462 186.947 267.546 186.181 266.786 186.302 C 265.972 186.432 265.079 187.337 264.669 188.051 C 263.440 190.189 263.688 193.803 264.024 196.245 C 264.571 200.214 268.903 208.673 268.904 208.674 C 268.904 208.674 268.904 208.674 268.904 208.674 Z"/>
</g>
<g id="Layer_2">
<path fill="#5d5d5f" fill-rule="evenodd" stroke="none" d="M 272.152 188.902 C 272.152 188.902 272.152 188.902 272.152 188.902 C 277.847 188.708 285.441 188.450 291.137 188.256 C 291.137 188.256 291.137 188.256 291.137 188.256 C 291.003 193.071 290.692 204.304 290.692 204.306 C 285.330 204.527 272.819 205.044 272.818 205.044 C 272.618 200.201 272.152 188.903 272.152 188.902 C 272.152 188.902 272.152 188.902 272.152 188.902 Z"/>
<path fill="none" stroke="#050505" stroke-width="1" stroke-linecap="round" stroke-linejoin="round" d="M 290.692 204.306 C 290.692 204.306 290.692 204.306 290.692 204.306 C 290.692 204.304 291.003 193.071 291.137 188.256 C 285.441 188.450 277.847 188.708 272.152 188.902 C 272.152 188.902 272.152 188.902 272.152 188.902 C 272.152 188.903 272.618 200.201 272.818 205.044 C 272.818 205.044 272.818 205.044 272.818 205.044 C 272.819 205.044 285.330 204.527 290.692 204.306 M 291.137 188.256 C 291.137 188.256 291.137 188.256 291.137 188.256 M 272.152 188.902 C 272.152 188.902 272.152 188.902 272.152 188.902 "/>
</g>
<g id="Layer_11">
<g id="Layer_2">
<path fill="#e3ae86" fill-rule="evenodd" stroke="#00000c" stroke-width="1" stroke-linecap="round" stroke-linejoin="round" d="M 205.092 315.390 C 201.014 316.561 198.773 323.417 194.939 325.235 C 191.577 326.829 186.182 327.888 182.632 326.773 C 175.844 324.643 169.829 315.860 166.018 309.852 C 160.671 301.421 156.840 288.271 154.942 278.470 C 152.081 263.692 143.807 239.916 153.404 228.320 C 158.571 222.076 171.514 222.555 179.556 221.551 C 189.173 220.350 202.577 219.076 211.861 221.859 C 221.009 224.600 233.565 230.991 238.628 239.088 C 241.114 243.064 241.588 249.786 241.397 254.471 C 241.207 259.147 238.715 265.057 237.397 269.547 C 232.991 284.559 225.983 304.221 221.091 319.082 C 221.091 319.082 221.091 319.082 221.091 319.082 C 221.091 318.897 209.826 314.030 205.092 315.390 Z"/>
</g>
<g id="Layer_10">
<path fill="#232d2c" fill-rule="evenodd" stroke="none" d="M 259.549 255.702 C 262.578 273.269 243.552 312.923 243.551 312.928 C 242.074 312.928 240.080 312.662 238.628 312.928 C 233.180 313.929 221.708 320.312 221.706 320.312 C 220.875 318.651 219.501 316.544 218.937 314.774 C 217.274 309.549 216.308 302.085 216.784 296.622 C 217.354 290.078 219.721 281.244 223.245 275.701 C 227.172 269.523 234.895 262.756 241.397 259.394 C 246.289 256.865 254.640 252.061 259.242 255.087 C 259.414 255.200 259.514 255.499 259.549 255.702 Z"/>
<path fill="none" stroke="#00000c" stroke-width="1" stroke-linecap="round" stroke-linejoin="round" d="M 259.549 255.702 C 262.578 273.269 243.552 312.923 243.551 312.928 C 243.551 312.928 243.551 312.928 243.551 312.928 C 242.074 312.928 240.080 312.662 238.628 312.928 C 233.180 313.929 221.708 320.312 221.706 320.312 C 220.875 318.651 219.501 316.544 218.937 314.774 C 217.274 309.549 216.308 302.085 216.784 296.622 C 217.354 290.078 219.721 281.244 223.245 275.701 C 227.172 269.523 234.895 262.756 241.397 259.394 C 246.289 256.865 254.640 252.061 259.242 255.087 C 259.414 255.200 259.514 255.499 259.549 255.702 M 221.706 320.312 C 221.706 320.312 221.706 320.312 221.706 320.312 "/>
</g>
<g id="Layer_3">
<path fill="#1f2427" fill-rule="evenodd" stroke="#00000c" stroke-width="1" stroke-linecap="round" stroke-linejoin="round" d="M 137.222 229.773 C 136.927 227.446 137.516 224.299 137.890 221.984 C 139.286 213.335 140.460 201.065 145.234 193.719 C 148.956 187.991 156.676 182.244 162.816 179.252 C 170.362 175.575 181.799 173.646 190.192 173.466 C 199.474 173.266 212.408 174.496 220.699 178.675 C 226.316 181.506 233.101 187.344 236.155 192.843 C 239.633 199.105 239.213 209.275 240.341 216.348 C 241.242 221.999 240.874 229.928 243.021 235.232 C 245.579 241.553 252.867 247.760 256.542 253.505 C 257.027 254.264 258.225 255.233 258.032 256.113 C 257.024 260.711 247.392 258.873 242.939 260.399 C 236.369 262.651 227.993 266.667 221.510 269.157 C 216.129 271.224 209.164 275.038 203.435 275.679 C 200.085 276.054 195.295 276.017 192.255 274.561 C 189.082 273.041 186.304 268.883 184.056 266.176 C 178.230 259.157 174.387 246.352 166.995 241.008 C 164.258 239.030 159.711 237.795 156.373 237.282 C 151.562 236.541 145.025 237.803 140.162 238.027 C 140.162 238.027 140.162 238.027 140.162 238.027 C 140.148 237.954 137.552 232.381 137.222 229.773 Z"/>
</g>
<g id="Layer_4">
<path fill="#5d6c8b" fill-rule="evenodd" stroke="#00000c" stroke-width="1" stroke-linecap="round" stroke-linejoin="round" d="M 176.830 255.018 C 176.830 255.018 176.830 255.018 176.830 255.018 C 180.591 253.623 185.569 251.661 189.366 250.368 C 196.213 248.036 205.304 244.613 212.415 243.291 C 220.484 241.792 231.754 243.481 239.711 241.472 C 241.873 240.926 245.420 240.543 246.585 238.641 C 247.891 236.511 247.172 232.424 245.777 230.351 C 244.111 227.876 239.796 226.536 236.880 225.903 C 229.743 224.353 219.832 226.782 212.618 227.925 C 200.470 229.849 184.736 234.719 172.786 237.630 C 172.786 237.630 172.786 237.630 172.786 237.630 C 173.999 242.847 176.830 255.017 176.830 255.018 C 176.830 255.018 176.830 255.018 176.830 255.018 Z"/>
</g>
<g id="Layer_6">
<path fill="#242527" fill-rule="evenodd" stroke="none" d="M 170.137 314.950 C 170.137 314.950 170.137 314.950 170.137 314.950 C 171.868 319.452 173.605 325.718 175.909 329.956 C 178.836 335.342 183.393 342.396 188.029 346.406 C 197.372 354.485 212.867 362.119 224.969 364.587 C 233.713 366.370 245.984 365.375 254.694 363.433 C 262.572 361.676 272.067 356.160 279.512 353.043 C 279.512 353.043 279.512 353.043 279.512 353.043 C 281.417 356.160 283.957 360.316 285.861 363.433 C 285.861 363.433 285.861 363.433 285.861 363.433 C 276.424 367.069 264.348 373.704 254.405 375.553 C 244.446 377.406 230.616 377.309 220.640 375.553 C 214.141 374.410 205.639 371.527 199.862 368.339 C 191.728 363.850 182.020 355.711 175.909 348.714 C 169.823 341.747 159.749 322.455 159.748 322.453 C 162.865 320.202 170.136 314.950 170.137 314.950 C 170.137 314.950 170.137 314.950 170.137 314.950 Z"/>
<path fill="none" stroke="#00000c" stroke-width="1" stroke-linecap="round" stroke-linejoin="round" d="M 159.748 322.453 C 159.748 322.453 159.748 322.453 159.748 322.453 C 159.749 322.455 169.823 341.747 175.909 348.714 C 182.020 355.711 191.728 363.850 199.862 368.339 C 205.639 371.527 214.141 374.410 220.640 375.553 C 230.616 377.309 244.446 377.406 254.405 375.553 C 264.348 373.704 276.424 367.069 285.861 363.433 C 283.957 360.316 281.417 356.160 279.512 353.043 C 272.067 356.160 262.572 361.676 254.694 363.433 C 245.984 365.375 233.713 366.370 224.969 364.587 C 212.867 362.119 197.372 354.485 188.029 346.406 C 183.393 342.396 178.836 335.342 175.909 329.956 C 173.605 325.718 171.868 319.452 170.137 314.950 C 170.137 314.950 170.137 314.950 170.137 314.950 C 170.136 314.950 162.865 320.202 159.748 322.453 M 279.512 353.043 C 279.512 353.043 279.512 353.043 279.512 353.043 M 285.861 363.433 C 285.861 363.433 285.861 363.433 285.861 363.433 M 170.137 314.950 C 170.137 314.950 170.137 314.950 170.137 314.950 "/>
</g>
<g id="Layer_7">
<path fill="#e3e528" fill-rule="evenodd" stroke="#00000c" stroke-width="1" stroke-linecap="round" stroke-linejoin="round" d="M 155.510 282.829 C 155.510 282.829 155.510 282.829 155.510 282.829 C 149.666 285.955 141.874 290.123 136.030 293.249 C 136.030 293.249 139.815 310.832 143.505 317.487 C 146.310 322.547 150.543 330.185 155.963 332.211 C 158.004 332.973 161.086 332.236 163.212 331.758 C 166.007 331.129 169.227 328.644 172.046 328.133 C 174.588 327.672 178.353 329.534 180.654 328.360 C 182.167 327.587 183.659 325.482 184.051 323.829 C 184.795 320.702 181.700 316.621 181.560 313.410 C 181.419 310.183 183.065 305.991 183.145 302.763 C 183.217 299.897 184.094 295.436 182.239 293.249 C 178.850 289.253 169.793 292.474 165.024 290.304 C 161.720 288.801 155.511 282.830 155.510 282.829 C 155.510 282.829 155.510 282.829 155.510 282.829 Z"/>
<path fill="#0f1014" fill-rule="evenodd" stroke="#00000c" stroke-width="1" stroke-linecap="round" stroke-linejoin="round" d="M 142.152 313.593 C 143.717 317.331 146.131 322.278 148.718 325.398 C 150.107 327.074 152.269 331.169 154.198 330.157 C 154.806 329.838 154.734 328.616 154.722 327.929 C 154.642 323.064 151.014 317.189 149.085 312.723 C 147.224 308.412 145.332 302.138 142.138 298.696 C 141.329 297.825 140.023 296.219 138.861 296.468 C 138.236 296.602 137.547 297.505 137.547 298.144 C 137.547 298.307 137.745 298.469 137.811 298.618 C 137.809 298.537 140.346 309.278 142.152 313.593 Z"/>
</g>
<g id="Layer_5">
<path fill="#3c3d41" fill-rule="evenodd" stroke="none" d="M 162.918 238.829 C 162.918 238.829 162.918 238.829 162.918 238.829 C 161.601 237.512 160.160 235.341 158.530 234.441 C 155.203 232.603 149.839 231.679 146.068 232.159 C 140.953 232.811 135.257 237.442 130.623 239.706 C 130.623 239.706 130.623 239.706 130.623 239.706 C 132.466 242.813 135.804 246.580 136.766 250.061 C 137.482 252.650 136.346 256.394 136.942 259.012 C 138.181 264.454 141.810 271.246 145.191 275.686 C 147.946 279.304 152.026 284.706 156.424 285.866 C 158.224 286.340 160.946 285.904 162.567 284.988 C 164.987 283.620 166.733 279.989 168.183 277.617 C 170.935 273.114 175.554 261.647 175.554 261.645 C 177.239 260.118 180.334 258.669 181.171 256.555 C 182.164 254.046 181.249 250.127 180.293 247.604 C 178.644 243.251 175.375 236.257 170.816 235.318 C 168.276 234.795 162.918 238.828 162.918 238.829 C 162.918 238.829 162.918 238.829 162.918 238.829 Z"/>
<path fill="none" stroke="#00000c" stroke-width="1" stroke-linecap="round" stroke-linejoin="round" d="M 175.554 261.645 C 175.554 261.645 175.554 261.645 175.554 261.645 C 175.554 261.647 170.935 273.114 168.183 277.617 C 166.733 279.989 164.987 283.620 162.567 284.988 C 160.946 285.904 158.224 286.340 156.424 285.866 C 152.026 284.706 147.946 279.304 145.191 275.686 C 141.810 271.246 138.181 264.454 136.942 259.012 C 136.346 256.394 137.482 252.650 136.766 250.061 C 135.804 246.580 132.466 242.813 130.623 239.706 C 135.257 237.442 140.953 232.811 146.068 232.159 C 149.839 231.679 155.203 232.603 158.530 234.441 C 160.160 235.341 161.601 237.512 162.918 238.829 C 162.918 238.829 162.918 238.829 162.918 238.829 C 162.918 238.828 168.276 234.795 170.816 235.318 C 175.375 236.257 178.644 243.251 180.293 247.604 C 181.249 250.127 182.164 254.046 181.171 256.555 C 180.334 258.669 177.239 260.118 175.554 261.645 M 130.623 239.706 C 130.623 239.706 130.623 239.706 130.623 239.706 M 162.918 238.829 C 162.918 238.829 162.918 238.829 162.918 238.829 "/>
<path fill="#708892" fill-rule="evenodd" stroke="#00000c" stroke-width="1" stroke-linecap="round" stroke-linejoin="round" d="M 137.115 259.209 C 139.280 267.082 145.191 279.448 153.168 281.188 C 154.778 281.539 157.391 280.785 158.386 279.472 C 161.094 275.895 158.077 268.903 156.802 264.602 C 155.137 258.988 151.708 251.638 147.782 247.294 C 147.047 246.481 145.945 245.235 144.857 245.101 C 143.250 244.902 141.179 246.326 139.982 247.416 C 138.789 248.503 138.056 250.652 137.230 252.039 C 137.230 252.039 137.230 252.039 137.230 252.039 C 137.211 252.033 136.545 257.135 137.115 259.209 Z"/>
<path fill="#494c53" fill-rule="evenodd" stroke="#00000c" stroke-width="1" stroke-linecap="round" stroke-linejoin="round" d="M 168.882 243.985 C 169.846 244.151 170.562 245.572 171.056 246.416 C 171.499 247.169 171.969 248.293 172.016 249.166 C 172.069 250.151 171.867 251.595 171.248 252.363 C 170.710 253.032 169.537 253.781 168.690 253.643 C 167.429 253.436 166.454 251.585 165.876 250.445 C 165.316 249.340 165.249 247.624 164.981 246.416 C 164.981 246.416 164.981 246.416 164.981 246.416 C 165.000 246.435 167.523 243.752 168.882 243.985 Z"/>
</g>
</g>
<g id="Layer_4">
<path fill="#4b6468" fill-rule="evenodd" stroke="none" d="M 390.356 410.513 C 390.356 410.513 390.356 410.513 390.356 410.513 C 397.272 411.570 406.482 413.057 413.409 414.035 C 422.327 415.294 434.271 419.167 443.186 417.878 C 450.001 416.891 459.749 414.066 464.317 408.912 C 468.163 404.574 468.884 396.129 469.972 390.435 C 471.939 380.142 471.528 366.032 472.322 355.583 C 473.475 340.417 469.964 318.739 476.630 305.067 C 478.815 300.585 483.406 294.902 487.986 292.928 C 497.287 288.920 511.671 293.624 521.663 295.277 C 527.763 296.287 536.263 303.431 541.634 300.368 C 543.872 299.092 545.044 295.110 545.159 292.536 C 545.320 288.896 543.229 283.941 540.851 281.180 C 536.394 276.005 525.306 275.840 520.488 270.999 C 517.486 267.981 516.978 261.334 513.831 258.467 C 502.817 248.433 480.992 246.820 466.448 243.587 C 440.218 237.756 404.366 234.405 377.556 232.622 C 347.227 230.605 306.634 232.006 276.239 231.741 C 276.239 231.741 276.239 231.741 276.239 231.741 C 272.557 234.809 267.990 239.363 263.968 241.967 C 261.281 243.707 256.807 244.603 254.423 246.739 C 248.964 251.632 244.943 261.093 242.152 267.873 C 239.376 274.616 237.128 284.186 236.017 291.393 C 234.691 299.993 232.301 311.989 234.653 320.366 C 236.195 325.856 244.878 336.385 244.879 336.387 C 243.857 339.761 240.999 344.141 241.471 347.635 C 241.888 350.729 244.997 354.042 246.924 356.498 C 249.847 360.220 254.241 364.901 258.123 367.610 C 262.035 370.339 267.926 375.577 272.531 374.333 C 275.500 373.532 278.934 366.330 278.934 366.329 C 293.727 372.764 313.610 380.989 328.242 387.781 C 332.216 389.626 338.212 391.146 341.369 394.185 C 344.434 397.135 345.115 403.632 348.093 406.671 C 351.103 409.743 356.540 412.237 360.580 413.715 C 367.535 416.260 378.209 421.025 384.913 417.878 C 387.400 416.710 390.356 410.514 390.356 410.513 C 390.356 410.513 390.356 410.513 390.356 410.513 Z"/>
<path fill="none" stroke="#090909" stroke-width="1" stroke-linecap="round" stroke-linejoin="round" d="M 244.879 336.387 C 244.879 336.387 244.879 336.387 244.879 336.387 C 244.878 336.385 236.195 325.856 234.653 320.366 C 232.301 311.989 234.691 299.993 236.017 291.393 C 237.128 284.186 239.376 274.616 242.152 267.873 C 244.943 261.093 248.964 251.632 254.423 246.739 C 256.807 244.603 261.281 243.707 263.968 241.967 C 267.990 239.363 272.557 234.809 276.239 231.741 C 306.634 232.006 347.227 230.605 377.556 232.622 C 404.366 234.405 440.218 237.756 466.448 243.587 C 480.992 246.820 502.817 248.433 513.831 258.467 C 516.978 261.334 517.486 267.981 520.488 270.999 C 525.306 275.840 536.394 276.005 540.851 281.180 C 543.229 283.941 545.320 288.896 545.159 292.536 C 545.044 295.110 543.872 299.092 541.634 300.368 C 536.263 303.431 527.763 296.287 521.663 295.277 C 511.671 293.624 497.287 288.920 487.986 292.928 C 483.406 294.902 478.815 300.585 476.630 305.067 C 469.964 318.739 473.475 340.417 472.322 355.583 C 471.528 366.032 471.939 380.142 469.972 390.435 C 468.884 396.129 468.163 404.574 464.317 408.912 C 459.749 414.066 450.001 416.891 443.186 417.878 C 434.271 419.167 422.327 415.294 413.409 414.035 C 406.482 413.057 397.272 411.570 390.356 410.513 C 390.356 410.513 390.356 410.513 390.356 410.513 C 390.356 410.514 387.400 416.710 384.913 417.878 C 378.209 421.025 367.535 416.260 360.580 413.715 C 356.540 412.237 351.103 409.743 348.093 406.671 C 345.115 403.632 344.434 397.135 341.369 394.185 C 338.212 391.146 332.216 389.626 328.242 387.781 C 313.610 380.989 293.727 372.764 278.934 366.329 C 278.934 366.329 278.934 366.329 278.934 366.329 C 278.934 366.330 275.500 373.532 272.531 374.333 C 267.926 375.577 262.035 370.339 258.123 367.610 C 254.241 364.901 249.847 360.220 246.924 356.498 C 244.997 354.042 241.888 350.729 241.471 347.635 C 240.999 344.141 243.857 339.761 244.879 336.387 M 276.239 231.741 C 276.239 231.741 276.239 231.741 276.239 231.741 M 390.356 410.513 C 390.356 410.513 390.356 410.513 390.356 410.513 "/>
<path fill="#090909" d="M 463.476 285.952 C 459.704 289.701 458.311 299.155 457.084 304.359 L 454.164 303.670 C 455.410 298.390 459.166 289.436 463.052 285.527 L 463.476 285.952 Z"/>
<path fill="#090909" d="M 457.084 304.359 C 452.787 322.468 454.789 341.301 455.966 359.951 L 452.972 360.139 C 451.800 341.553 449.792 322.282 454.164 303.670 L 457.084 304.359 Z"/>
<path fill="none" stroke="#090909" stroke-width="1" stroke-linecap="butt" stroke-linejoin="round" d="M 457.084 304.359 L 454.164 303.670 "/>
<path fill="#090909" d="M 455.966 359.951 C 456.372 366.445 457.984 384.069 452.720 389.428 L 452.296 389.003 C 457.388 384.006 453.399 366.843 452.972 360.139 L 455.966 359.951 Z"/>
<path fill="none" stroke="#090909" stroke-width="1" stroke-linecap="butt" stroke-linejoin="round" d="M 455.966 359.951 L 452.972 360.139 "/>
<path fill="#12232b" fill-rule="evenodd" stroke="#090909" stroke-width="1" stroke-linecap="round" stroke-linejoin="round" d="M 245.410 343.861 C 244.856 346.502 248.801 349.255 249.542 351.850 C 250.157 354.004 250.185 359.288 250.185 359.288 C 251.700 357.993 254.279 356.721 255.235 354.972 C 256.210 353.191 256.636 350.240 256.154 348.269 C 255.526 345.705 253.349 342.227 250.919 341.198 C 250.082 340.843 248.798 341.262 247.889 341.290 C 247.889 341.290 247.889 341.290 247.889 341.290 C 247.806 341.290 245.630 342.812 245.410 343.861 Z"/>
<path fill="#12232b" fill-rule="evenodd" stroke="#090909" stroke-width="1" stroke-linecap="round" stroke-linejoin="round" d="M 360.152 412.668 C 360.152 412.668 360.152 412.668 360.152 412.668 C 359.992 411.168 360.131 409.087 359.621 407.667 C 359.237 406.599 358.361 405.304 357.575 404.485 C 354.966 401.763 350.150 399.764 346.968 397.741 C 346.968 397.741 346.312 400.862 346.664 402.136 C 347.138 403.845 348.846 405.707 350.150 406.909 C 352.695 409.257 360.151 412.667 360.152 412.668 C 360.152 412.668 360.152 412.668 360.152 412.668 Z"/>
</g>
<g id="Layer_6">
<g id="Layer_5">
<path fill="#888c8f" fill-rule="evenodd" stroke="none" d="M 629.733 244.008 C 628.523 246.659 625.683 249.468 623.947 251.808 C 623.917 251.808 413.547 251.447 323.376 251.292 C 323.374 251.291 309.575 249.722 305.083 246.223 C 297.524 240.335 292.940 227.065 290.536 217.791 C 288.179 208.696 287.668 195.721 289.434 186.494 C 290.771 179.510 294.051 170.062 298.691 164.674 C 301.774 161.094 307.461 157.707 311.908 156.111 C 314.211 155.285 317.559 155.304 319.981 154.958 C 411.171 154.954 532.757 154.948 623.947 154.944 C 626.286 158.190 630.266 162.045 631.746 165.763 C 636.979 178.908 635.778 198.683 635.017 212.811 C 634.505 222.290 633.677 235.374 629.733 244.008 M 623.947 154.944 C 623.947 154.944 623.947 154.944 623.947 154.944 M 319.981 154.958 C 319.981 154.958 319.981 154.958 319.981 154.958 Z"/>
<path fill="none" stroke="#020204" stroke-width="1" stroke-linecap="round" stroke-linejoin="round" d="M 623.947 251.808 C 623.947 251.808 623.947 251.808 623.947 251.808 C 625.683 249.468 628.523 246.659 629.733 244.008 C 633.677 235.374 634.505 222.290 635.017 212.811 C 635.778 198.683 636.979 178.908 631.746 165.763 C 630.266 162.045 626.286 158.190 623.947 154.944 C 623.947 154.944 623.947 154.944 623.947 154.944 C 532.757 154.948 411.171 154.954 319.981 154.958 C 319.981 154.958 319.981 154.958 319.981 154.958 C 317.559 155.304 314.211 155.285 311.908 156.111 C 307.461 157.707 301.774 161.094 298.691 164.674 C 294.051 170.062 290.771 179.510 289.434 186.494 C 287.668 195.721 288.179 208.696 290.536 217.791 C 292.940 227.065 297.524 240.335 305.083 246.223 C 309.575 249.722 323.374 251.291 323.376 251.292 C 323.376 251.292 323.376 251.292 323.376 251.292 C 413.547 251.447 623.917 251.808 623.947 251.808 "/>
</g>
<g id="Layer_2">
<path fill="#e2e536" fill-rule="evenodd" stroke="none" d="M 334.810 251.289 C 334.810 251.289 334.810 251.289 334.810 251.289 C 332.234 246.071 328.367 239.306 326.224 233.897 C 323.461 226.920 319.955 217.387 319.037 209.939 C 317.899 200.708 318.298 187.966 320.695 178.979 C 322.765 171.223 329.043 162.210 332.621 155.024 C 332.621 155.024 332.621 155.024 332.621 155.024 C 339.340 155.004 355.015 154.957 355.018 154.957 C 354.123 156.151 352.786 157.647 352.036 158.936 C 348.352 165.264 344.455 174.448 343.079 181.640 C 341.624 189.251 341.970 199.800 343.079 207.469 C 344.010 213.908 347.066 222.125 349.120 228.298 C 351.454 235.313 357.827 251.349 357.828 251.351 C 350.922 251.332 334.812 251.289 334.810 251.289 C 334.810 251.289 334.810 251.289 334.810 251.289 Z"/>
<path fill="none" stroke="#00000c" stroke-width="1" stroke-linecap="round" stroke-linejoin="round" d="M 357.828 251.351 C 357.828 251.351 357.828 251.351 357.828 251.351 C 357.827 251.349 351.454 235.313 349.120 228.298 C 347.066 222.125 344.010 213.908 343.079 207.469 C 341.970 199.800 341.624 189.251 343.079 181.640 C 344.455 174.448 348.352 165.264 352.036 158.936 C 352.786 157.647 354.123 156.151 355.018 154.957 C 355.018 154.957 355.018 154.957 355.018 154.957 C 355.015 154.957 339.340 155.004 332.621 155.024 C 329.043 162.210 322.765 171.223 320.695 178.979 C 318.298 187.966 317.899 200.708 319.037 209.939 C 319.955 217.387 323.461 226.920 326.224 233.897 C 328.367 239.306 332.234 246.071 334.810 251.289 C 334.810 251.289 334.810 251.289 334.810 251.289 C 334.812 251.289 350.922 251.332 357.828 251.351 M 332.621 155.024 C 332.621 155.024 332.621 155.024 332.621 155.024 M 334.810 251.289 C 334.810 251.289 334.810 251.289 334.810 251.289 "/>
<path fill="#e2e536" fill-rule="evenodd" stroke="none" d="M 562.481 251.271 C 562.481 251.271 562.481 251.271 562.481 251.271 C 559.905 246.053 556.038 239.288 553.895 233.879 C 551.132 226.902 547.626 217.369 546.708 209.921 C 545.569 200.690 545.969 187.948 548.366 178.961 C 550.436 171.205 556.714 162.192 560.291 155.006 C 560.291 155.006 560.291 155.006 560.291 155.006 C 567.010 154.986 582.686 154.939 582.688 154.939 C 581.794 156.133 580.457 157.629 579.707 158.918 C 576.023 165.246 572.125 174.430 570.750 181.622 C 569.295 189.233 569.641 199.782 570.750 207.451 C 571.681 213.890 574.736 222.107 576.791 228.280 C 579.125 235.295 585.498 251.331 585.499 251.333 C 578.593 251.314 562.483 251.271 562.481 251.271 C 562.481 251.271 562.481 251.271 562.481 251.271 Z"/>
<path fill="none" stroke="#00000c" stroke-width="1" stroke-linecap="round" stroke-linejoin="round" d="M 585.499 251.333 C 585.499 251.333 585.499 251.333 585.499 251.333 C 585.498 251.331 579.125 235.295 576.791 228.280 C 574.736 222.107 571.681 213.890 570.750 207.451 C 569.641 199.782 569.295 189.233 570.750 181.622 C 572.125 174.430 576.023 165.246 579.707 158.918 C 580.457 157.629 581.794 156.133 582.688 154.939 C 582.688 154.939 582.688 154.939 582.688 154.939 C 582.686 154.939 567.010 154.986 560.291 155.006 C 556.714 162.192 550.436 171.205 548.366 178.961 C 545.969 187.948 545.569 200.690 546.708 209.921 C 547.626 217.369 551.132 226.902 553.895 233.879 C 556.038 239.288 559.905 246.053 562.481 251.271 C 562.481 251.271 562.481 251.271 562.481 251.271 C 562.483 251.271 578.593 251.314 585.499 251.333 M 560.291 155.006 C 560.291 155.006 560.291 155.006 560.291 155.006 M 562.481 251.271 C 562.481 251.271 562.481 251.271 562.481 251.271 "/>
<path fill="#00000c" d="M 614.820 163.447 C 596.027 178.436 598.895 204.086 608.380 223.029 L 605.695 224.368 C 595.983 204.811 595.473 178.205 614.446 162.978 L 614.820 163.447 Z"/>
<path fill="#00000c" d="M 608.380 223.029 C 610.260 226.813 613.620 239.446 617.571 240.197 L 617.446 240.784 C 613.119 239.776 607.473 227.922 605.695 224.368 L 608.380 223.029 Z"/>
<path fill="none" stroke="#00000c" stroke-width="1" stroke-linecap="butt" stroke-linejoin="round" d="M 608.380 223.029 L 605.695 224.368 "/>
</g>
</g>
<g id="Layer_14">
<g id="Layer_8">
<path fill="#3d4144" fill-rule="evenodd" stroke="none" d="M 506.530 471.741 C 508.574 475.728 510.154 481.547 511.707 485.749 C 511.705 485.751 497.211 500.884 490.999 507.371 C 490.995 507.368 465.729 489.747 454.760 482.399 C 444.886 475.785 430.564 468.541 421.566 460.778 C 415.051 455.157 407.230 446.567 402.381 439.460 C 397.314 432.036 394.776 419.533 388.981 412.662 C 383.632 406.321 373.698 400.750 366.750 396.217 C 356.403 389.467 340.588 383.622 330.898 375.958 C 323.356 369.992 315.532 359.607 308.947 352.599 C 308.945 352.599 294.563 355.008 288.684 353.443 C 279.859 351.094 269.741 343.085 263.355 336.558 C 256.852 329.911 249.832 319.158 246.751 310.384 C 245.002 305.404 244.325 298.225 244.396 292.946 C 244.504 284.981 246.030 274.188 248.991 266.792 C 250.404 263.261 252.965 258.669 255.725 256.053 C 259.185 252.772 265.518 250.769 269.715 248.505 C 277.532 248.158 287.980 246.632 295.772 247.349 C 303.136 248.026 313.260 249.413 319.794 252.876 C 326.333 256.343 333.807 263.481 337.864 269.670 C 341.138 274.665 341.436 283.356 344.667 288.378 C 346.594 291.374 350.535 294.268 352.958 296.881 C 360.948 305.500 370.944 317.583 378.680 326.431 C 388.942 338.167 403.039 353.460 412.977 365.471 C 418.984 372.732 425.773 383.448 432.344 390.203 C 439.695 397.758 451.857 405.248 459.459 412.550 C 467.530 420.301 477.326 431.623 484.299 440.374 C 491.487 449.394 501.269 461.477 506.530 471.741 M 269.715 248.505 C 269.715 248.505 269.715 248.505 269.715 248.505 Z"/>
<path fill="none" stroke="#00000c" stroke-width="1" stroke-linecap="round" stroke-linejoin="round" d="M 511.707 485.749 C 511.707 485.749 511.707 485.749 511.707 485.749 C 510.154 481.547 508.574 475.728 506.530 471.741 C 501.269 461.477 491.487 449.394 484.299 440.374 C 477.326 431.623 467.530 420.301 459.459 412.550 C 451.857 405.248 439.695 397.758 432.344 390.203 C 425.773 383.448 418.984 372.732 412.977 365.471 C 403.039 353.460 388.942 338.167 378.680 326.431 C 370.944 317.583 360.948 305.500 352.958 296.881 C 350.535 294.268 346.594 291.374 344.667 288.378 C 341.436 283.356 341.138 274.665 337.864 269.670 C 333.807 263.481 326.333 256.343 319.794 252.876 C 313.260 249.413 303.136 248.026 295.772 247.349 C 287.980 246.632 277.532 248.158 269.715 248.505 C 269.715 248.505 269.715 248.505 269.715 248.505 C 265.518 250.769 259.185 252.772 255.725 256.053 C 252.965 258.669 250.404 263.261 248.991 266.792 C 246.030 274.188 244.504 284.981 244.396 292.946 C 244.325 298.225 245.002 305.404 246.751 310.384 C 249.832 319.158 256.852 329.911 263.355 336.558 C 269.741 343.085 279.859 351.094 288.684 353.443 C 294.563 355.008 308.945 352.599 308.947 352.599 C 308.947 352.599 308.947 352.599 308.947 352.599 C 315.532 359.607 323.356 369.992 330.898 375.958 C 340.588 383.622 356.403 389.467 366.750 396.217 C 373.698 400.750 383.632 406.321 388.981 412.662 C 394.776 419.533 397.314 432.036 402.381 439.460 C 407.230 446.567 415.051 455.157 421.566 460.778 C 430.564 468.541 444.886 475.785 454.760 482.399 C 465.729 489.747 490.995 507.368 490.999 507.371 C 490.999 507.371 490.999 507.371 490.999 507.371 C 497.211 500.884 511.705 485.751 511.707 485.749 "/>
</g>
<g id="Layer_9">
<path fill="#3d4144" fill-rule="evenodd" stroke="none" d="M 482.957 507.580 C 482.957 507.580 482.957 507.580 482.957 507.580 C 486.127 502.202 489.045 494.003 493.523 489.653 C 498.764 484.561 508.527 481.555 514.958 478.084 C 514.959 478.087 522.341 493.803 525.505 500.540 C 525.507 500.541 541.151 508.469 546.260 513.809 C 551.791 519.591 557.624 529.174 559.529 536.945 C 561.133 543.491 559.053 552.664 558.848 559.401 C 559.084 563.205 557.368 568.185 557.147 571.990 C 556.875 576.678 557.830 582.957 557.487 587.641 C 557.005 594.236 558.711 605.079 553.662 609.350 C 552.475 610.354 549.960 610.957 548.562 610.277 C 544.548 608.323 545.141 600.431 543.926 596.136 C 541.592 587.890 541.054 576.085 537.435 568.317 C 534.557 562.139 528.023 555.498 523.989 550.003 C 523.989 550.003 523.989 550.003 523.989 550.003 C 523.989 550.005 525.784 562.650 523.989 567.622 C 523.163 569.911 521.356 573.149 519.121 574.113 C 516.871 575.083 512.916 574.722 511.007 573.186 C 508.626 571.268 509.203 566.257 507.993 563.449 C 506.280 559.472 502.394 554.960 500.807 550.931 C 498.303 544.572 498.028 535.183 495.939 528.676 C 494.833 525.233 493.176 520.641 491.302 517.549 C 489.281 514.213 485.461 510.571 482.957 507.580 M 523.989 550.003 C 523.989 550.003 523.989 550.003 523.989 550.003 Z"/>
<path fill="none" stroke="#00000c" stroke-width="1" stroke-linecap="round" stroke-linejoin="round" d="M 482.957 507.580 C 482.957 507.580 482.957 507.580 482.957 507.580 C 486.127 502.202 489.045 494.003 493.523 489.653 C 498.764 484.561 508.527 481.555 514.958 478.084 C 514.958 478.084 514.958 478.084 514.958 478.084 C 514.959 478.087 522.341 493.803 525.505 500.540 C 525.505 500.540 525.505 500.540 525.505 500.540 C 525.507 500.541 541.151 508.469 546.260 513.809 C 551.791 519.591 557.624 529.174 559.529 536.945 C 561.133 543.491 559.053 552.664 558.848 559.401 C 558.848 559.401 558.848 559.401 558.848 559.401 C 559.084 563.205 557.368 568.185 557.147 571.990 C 556.875 576.678 557.830 582.957 557.487 587.641 C 557.005 594.236 558.711 605.079 553.662 609.350 C 552.475 610.354 549.960 610.957 548.562 610.277 C 544.548 608.323 545.141 600.431 543.926 596.136 C 541.592 587.890 541.054 576.085 537.435 568.317 C 534.557 562.139 528.023 555.498 523.989 550.003 C 523.989 550.003 523.989 550.003 523.989 550.003 C 523.989 550.005 525.784 562.650 523.989 567.622 C 523.163 569.911 521.356 573.149 519.121 574.113 C 516.871 575.083 512.916 574.722 511.007 573.186 C 508.626 571.268 509.203 566.257 507.993 563.449 C 506.280 559.472 502.394 554.960 500.807 550.931 C 498.303 544.572 498.028 535.183 495.939 528.676 C 494.833 525.233 493.176 520.641 491.302 517.549 C 489.281 514.213 485.461 510.571 482.957 507.580 M 523.989 550.003 C 523.989 550.003 523.989 550.003 523.989 550.003 "/>
<path fill="none" stroke="#3d4144" stroke-width="1" stroke-linecap="butt" stroke-linejoin="round" d="M 557.147 571.990 C 557.368 568.185 559.084 563.205 558.848 559.401 "/>
<path fill="none" stroke="#3d4144" stroke-width="1" stroke-linecap="butt" stroke-linejoin="round" d="M 558.848 559.401 C 559.053 552.664 561.133 543.491 559.529 536.945 "/>
<path fill="none" stroke="#3d4144" stroke-width="1" stroke-linecap="butt" stroke-linejoin="round" d="M 559.529 536.945 C 557.624 529.174 551.791 519.591 546.260 513.809 "/>
<path fill="none" stroke="#3d4144" stroke-width="1" stroke-linecap="butt" stroke-linejoin="round" d="M 546.260 513.809 C 541.151 508.469 525.507 500.541 525.505 500.540 "/>
<path fill="none" stroke="#3d4144" stroke-width="1" stroke-linecap="butt" stroke-linejoin="round" d="M 525.505 500.540 C 522.341 493.803 514.959 478.087 514.958 478.084 "/>
<path fill="none" stroke="#3d4144" stroke-width="1" stroke-linecap="butt" stroke-linejoin="round" d="M 514.958 478.084 C 508.527 481.555 498.764 484.561 493.523 489.653 "/>
<path fill="none" stroke="#3d4144" stroke-width="1" stroke-linecap="butt" stroke-linejoin="round" d="M 493.523 489.653 C 489.045 494.003 486.127 502.202 482.957 507.580 "/>
<path fill="none" stroke="#3d4144" stroke-width="1" stroke-linecap="butt" stroke-linejoin="round" d="M 482.957 507.580 C 482.957 507.580 482.957 507.580 482.957 507.580 "/>
<path fill="none" stroke="#3d4144" stroke-width="1" stroke-linecap="butt" stroke-linejoin="round" d="M 482.957 507.580 C 485.461 510.571 489.281 514.213 491.302 517.549 "/>
<path fill="none" stroke="#3d4144" stroke-width="1" stroke-linecap="butt" stroke-linejoin="round" d="M 491.302 517.549 C 493.176 520.641 494.833 525.233 495.939 528.676 "/>
<path fill="none" stroke="#3d4144" stroke-width="1" stroke-linecap="butt" stroke-linejoin="round" d="M 495.939 528.676 C 498.028 535.183 498.303 544.572 500.807 550.931 "/>
<path fill="none" stroke="#3d4144" stroke-width="1" stroke-linecap="butt" stroke-linejoin="round" d="M 500.807 550.931 C 502.394 554.960 506.280 559.472 507.993 563.449 "/>
<path fill="none" stroke="#3d4144" stroke-width="1" stroke-linecap="butt" stroke-linejoin="round" d="M 507.993 563.449 C 509.203 566.257 508.626 571.268 511.007 573.186 "/>
<path fill="none" stroke="#3d4144" stroke-width="1" stroke-linecap="butt" stroke-linejoin="round" d="M 511.007 573.186 C 512.916 574.722 516.871 575.083 519.121 574.113 "/>
<path fill="none" stroke="#3d4144" stroke-width="1" stroke-linecap="butt" stroke-linejoin="round" d="M 519.121 574.113 C 521.356 573.149 523.163 569.911 523.989 567.622 "/>
<path fill="none" stroke="#3d4144" stroke-width="1" stroke-linecap="butt" stroke-linejoin="round" d="M 523.989 567.622 C 525.784 562.650 523.989 550.005 523.989 550.003 "/>
<path fill="none" stroke="#3d4144" stroke-width="1" stroke-linecap="butt" stroke-linejoin="round" d="M 523.989 550.003 C 528.023 555.498 534.557 562.139 537.435 568.317 "/>
<path fill="none" stroke="#3d4144" stroke-width="1" stroke-linecap="butt" stroke-linejoin="round" d="M 537.435 568.317 C 541.054 576.085 541.592 587.890 543.926 596.136 "/>
<path fill="none" stroke="#3d4144" stroke-width="1" stroke-linecap="butt" stroke-linejoin="round" d="M 543.926 596.136 C 545.141 600.431 544.548 608.323 548.562 610.277 "/>
<path fill="none" stroke="#3d4144" stroke-width="1" stroke-linecap="butt" stroke-linejoin="round" d="M 548.562 610.277 C 549.960 610.957 552.475 610.354 553.662 609.350 "/>
<path fill="none" stroke="#3d4144" stroke-width="1" stroke-linecap="butt" stroke-linejoin="round" d="M 553.662 609.350 C 558.711 605.079 557.005 594.236 557.487 587.641 "/>
<path fill="none" stroke="#3d4144" stroke-width="1" stroke-linecap="butt" stroke-linejoin="round" d="M 557.487 587.641 C 557.830 582.957 556.875 576.678 557.147 571.990 "/>
<path fill="none" stroke="#3d4144" stroke-width="1" stroke-linecap="butt" stroke-linejoin="round" d="M 523.989 550.003 C 523.989 550.003 523.989 550.003 523.989 550.003 "/>
<path fill="none" stroke="#3d4144" stroke-width="1" stroke-linecap="butt" stroke-linejoin="round" d="M 523.989 550.003 C 523.989 550.003 523.989 550.003 523.989 550.003 "/>
<path fill="#3d4144" fill-rule="evenodd" stroke="none" d="M 557.147 571.990 C 557.368 568.185 559.084 563.205 558.848 559.401 C 559.053 552.664 561.133 543.491 559.529 536.945 C 557.624 529.174 551.791 519.591 546.260 513.809 C 541.151 508.469 525.507 500.541 525.505 500.540 C 522.341 493.803 514.959 478.087 514.958 478.084 C 508.527 481.555 498.764 484.561 493.523 489.653 C 489.045 494.003 486.127 502.202 482.957 507.580 C 482.957 507.580 482.957 507.580 482.957 507.580 C 485.461 510.571 489.281 514.213 491.302 517.549 C 493.176 520.641 494.833 525.233 495.939 528.676 C 498.028 535.183 498.303 544.572 500.807 550.931 C 502.394 554.960 506.280 559.472 507.993 563.449 C 509.203 566.257 508.626 571.268 511.007 573.186 C 512.916 574.722 516.871 575.083 519.121 574.113 C 521.356 573.149 523.163 569.911 523.989 567.622 C 525.784 562.650 523.989 550.005 523.989 550.003 C 528.023 555.498 534.557 562.139 537.435 568.317 C 541.054 576.085 541.592 587.890 543.926 596.136 C 545.141 600.431 544.548 608.323 548.562 610.277 C 549.960 610.957 552.475 610.354 553.662 609.350 C 558.711 605.079 557.005 594.236 557.487 587.641 C 557.830 582.957 556.875 576.678 557.147 571.990 M 523.989 550.003 C 523.989 550.003 523.989 550.003 523.989 550.003 C 523.989 550.003 523.989 550.003 523.989 550.003 Z"/>
<path fill="#00000c" d="M 558.349 559.432 C 557.946 552.708 552.504 537.487 552.503 537.485 L 552.503 537.485 C 552.504 537.487 558.907 552.430 559.348 559.370 L 558.349 559.432 Z"/>
<path fill="#00000c" d="M 556.648 571.961 C 556.879 568.078 558.590 563.122 558.349 559.432 L 559.348 559.370 C 559.577 563.288 557.856 568.293 557.646 572.019 L 556.648 571.961 Z"/>
<path fill="none" stroke="#00000c" stroke-width="1" stroke-linecap="butt" stroke-linejoin="round" d="M 556.648 571.961 L 557.646 572.019 "/>
<path fill="#00000c" d="M 558.349 559.386 C 558.558 552.593 560.634 543.476 559.043 537.064 L 560.015 536.826 C 561.633 543.507 559.548 552.736 559.348 559.416 L 558.349 559.386 Z"/>
<path fill="none" stroke="#00000c" stroke-width="1" stroke-linecap="butt" stroke-linejoin="round" d="M 558.349 559.386 L 559.348 559.416 "/>
<path fill="#00000c" d="M 559.043 537.064 C 557.167 529.378 551.389 519.888 545.898 514.155 L 546.621 513.464 C 552.193 519.293 558.081 528.971 560.015 536.826 L 559.043 537.064 Z"/>
<path fill="none" stroke="#00000c" stroke-width="1" stroke-linecap="butt" stroke-linejoin="round" d="M 559.043 537.064 L 560.015 536.826 "/>
<path fill="#00000c" d="M 545.898 514.155 C 540.882 508.891 525.281 500.987 525.234 500.960 L 525.777 500.120 C 525.733 500.095 541.420 508.048 546.621 513.464 L 545.898 514.155 Z"/>
<path fill="none" stroke="#00000c" stroke-width="1" stroke-linecap="butt" stroke-linejoin="round" d="M 545.898 514.155 L 546.621 513.464 "/>
<path fill="#00000c" d="M 525.053 500.753 C 521.888 494.016 514.506 478.299 514.503 478.293 L 515.412 477.876 C 515.411 477.874 522.794 493.591 525.958 500.327 L 525.053 500.753 Z"/>
<path fill="none" stroke="#00000c" stroke-width="1" stroke-linecap="butt" stroke-linejoin="round" d="M 525.053 500.753 L 525.958 500.327 "/>
<path fill="#00000c" d="M 515.195 478.524 C 508.713 482.019 499.001 485.001 493.871 490.011 L 493.174 489.294 C 498.527 484.121 508.342 481.091 514.720 477.644 L 515.195 478.524 Z"/>
<path fill="none" stroke="#00000c" stroke-width="1" stroke-linecap="butt" stroke-linejoin="round" d="M 515.195 478.524 L 514.720 477.644 "/>
<path fill="#00000c" d="M 493.871 490.011 C 489.476 494.257 486.583 502.407 483.388 507.834 L 482.526 507.326 C 485.670 501.997 488.614 493.749 493.174 489.294 L 493.871 490.011 Z"/>
<path fill="none" stroke="#00000c" stroke-width="1" stroke-linecap="butt" stroke-linejoin="round" d="M 493.871 490.011 L 493.174 489.294 "/>
<path fill="#00000c" d="M 483.340 507.259 C 485.822 510.226 489.665 513.892 491.730 517.290 L 490.875 517.808 C 488.898 514.534 485.099 510.916 482.573 507.901 L 483.340 507.259 Z"/>
<path fill="none" stroke="#00000c" stroke-width="1" stroke-linecap="butt" stroke-linejoin="round" d="M 483.340 507.259 L 482.573 507.901 "/>
<path fill="#00000c" d="M 491.730 517.289 C 493.631 520.433 495.306 525.070 496.415 528.523 L 495.463 528.829 C 494.361 525.395 492.722 520.850 490.875 517.808 L 491.730 517.289 Z"/>
<path fill="none" stroke="#00000c" stroke-width="1" stroke-linecap="butt" stroke-linejoin="round" d="M 491.730 517.289 L 490.875 517.808 "/>
<path fill="#00000c" d="M 496.415 528.523 C 498.522 535.110 498.795 544.485 501.272 550.747 L 500.342 551.114 C 497.810 544.659 497.533 535.257 495.463 528.829 L 496.415 528.523 Z"/>
<path fill="none" stroke="#00000c" stroke-width="1" stroke-linecap="butt" stroke-linejoin="round" d="M 496.415 528.523 L 495.463 528.829 "/>
<path fill="#00000c" d="M 501.272 550.747 C 502.815 554.690 506.697 559.197 508.453 563.251 L 507.534 563.647 C 505.862 559.747 501.973 555.230 500.342 551.114 L 501.272 550.747 Z"/>
<path fill="none" stroke="#00000c" stroke-width="1" stroke-linecap="butt" stroke-linejoin="round" d="M 501.272 550.747 L 500.342 551.114 "/>
<path fill="#00000c" d="M 508.453 563.251 C 509.702 566.217 509.109 571.142 511.321 572.796 L 510.694 573.575 C 508.142 571.394 508.705 566.297 507.534 563.647 L 508.453 563.251 Z"/>
<path fill="none" stroke="#00000c" stroke-width="1" stroke-linecap="butt" stroke-linejoin="round" d="M 508.453 563.251 L 507.534 563.647 "/>
<path fill="#00000c" d="M 511.321 572.796 C 513.070 574.246 516.823 574.585 518.923 573.654 L 519.319 574.572 C 516.920 575.581 512.762 575.198 510.694 573.575 L 511.321 572.796 Z"/>
<path fill="none" stroke="#00000c" stroke-width="1" stroke-linecap="butt" stroke-linejoin="round" d="M 511.321 572.796 L 510.694 573.575 "/>
<path fill="#00000c" d="M 518.923 573.654 C 520.996 572.802 522.712 569.696 523.519 567.452 L 524.460 567.791 C 523.614 570.126 521.717 573.496 519.319 574.572 L 518.923 573.654 Z"/>
<path fill="none" stroke="#00000c" stroke-width="1" stroke-linecap="butt" stroke-linejoin="round" d="M 518.923 573.654 L 519.319 574.572 "/>
<path fill="#00000c" d="M 523.519 567.452 C 525.284 562.650 523.494 550.075 523.489 550.003 L 524.489 550.003 C 524.484 549.935 526.284 562.650 524.460 567.791 L 523.519 567.452 Z"/>
<path fill="none" stroke="#00000c" stroke-width="1" stroke-linecap="butt" stroke-linejoin="round" d="M 523.519 567.452 L 524.460 567.791 "/>
<path fill="#00000c" d="M 524.392 549.707 C 528.400 555.169 534.960 561.843 537.888 568.106 L 536.982 568.528 C 534.154 562.435 527.646 555.826 523.586 550.299 L 524.392 549.707 Z"/>
<path fill="none" stroke="#00000c" stroke-width="1" stroke-linecap="butt" stroke-linejoin="round" d="M 524.392 549.707 L 523.586 550.299 "/>
<path fill="#00000c" d="M 537.888 568.106 C 541.543 575.982 542.087 587.819 544.407 595.999 L 543.445 596.272 C 541.097 587.961 540.564 576.189 536.982 568.528 L 537.888 568.106 Z"/>
<path fill="none" stroke="#00000c" stroke-width="1" stroke-linecap="butt" stroke-linejoin="round" d="M 537.888 568.106 L 536.982 568.528 "/>
<path fill="#00000c" d="M 544.407 595.999 C 545.641 600.406 545.020 608.158 548.781 609.827 L 548.343 610.726 C 544.076 608.487 544.642 600.457 543.445 596.272 L 544.407 595.999 Z"/>
<path fill="none" stroke="#00000c" stroke-width="1" stroke-linecap="butt" stroke-linejoin="round" d="M 544.407 595.999 L 543.445 596.272 "/>
<path fill="#00000c" d="M 548.781 609.827 C 549.970 610.457 552.276 609.895 553.339 608.968 L 553.985 609.731 C 552.674 610.813 549.951 611.457 548.343 610.726 L 548.781 609.827 Z"/>
<path fill="none" stroke="#00000c" stroke-width="1" stroke-linecap="butt" stroke-linejoin="round" d="M 548.781 609.827 L 548.343 610.726 "/>
<path fill="#00000c" d="M 553.339 608.968 C 558.223 604.971 556.506 594.271 556.989 587.604 L 557.986 587.677 C 557.504 594.201 559.200 605.187 553.985 609.731 L 553.339 608.968 Z"/>
<path fill="none" stroke="#00000c" stroke-width="1" stroke-linecap="butt" stroke-linejoin="round" d="M 553.339 608.968 L 553.985 609.731 "/>
<path fill="#00000c" d="M 556.989 587.604 C 557.331 582.985 556.376 576.709 556.648 571.961 L 557.646 572.019 C 557.374 576.647 558.329 582.929 557.986 587.677 L 556.989 587.604 Z"/>
<path fill="none" stroke="#00000c" stroke-width="1" stroke-linecap="butt" stroke-linejoin="round" d="M 556.989 587.604 L 557.986 587.677 "/>
<path fill="#00000c" d="M 556.676 572.157 C 553.660 563.669 551.115 555.014 548.099 546.526 L 548.099 546.526 C 551.115 555.014 554.602 563.335 557.618 571.823 L 556.676 572.157 Z"/>
<path fill="none" stroke="#00000c" stroke-width="1" stroke-linecap="butt" stroke-linejoin="round" d="M 556.676 572.157 L 557.618 571.823 "/>
</g>
<g id="Layer_10">
<path fill="#4acbe1" fill-rule="evenodd" stroke="#00000c" stroke-width="1" stroke-linecap="round" stroke-linejoin="round" d="M 522.638 494.185 C 522.638 494.185 522.638 494.185 522.638 494.185 C 518.515 497.992 513.016 503.067 508.893 506.873 C 508.893 506.873 508.893 506.873 508.893 506.873 C 511.129 510.702 513.543 516.201 516.348 519.635 C 519.491 523.482 523.826 529.841 528.731 530.628 C 531.430 531.062 535.289 529.422 537.324 527.596 C 540.610 524.647 542.871 518.482 543.137 514.075 C 543.442 509.012 541.915 501.364 538.208 497.901 C 534.699 494.622 522.640 494.186 522.638 494.185 C 522.638 494.185 522.638 494.185 522.638 494.185 Z"/>
</g>
</g>
</svg>
